%TF.GenerationSoftware,KiCad,Pcbnew,9.0.0*%
%TF.CreationDate,2025-05-25T15:05:46+08:00*%
%TF.ProjectId,LED_Torch,4c45445f-546f-4726-9368-2e6b69636164,1*%
%TF.SameCoordinates,Original*%
%TF.FileFunction,Legend,Bot*%
%TF.FilePolarity,Positive*%
%FSLAX46Y46*%
G04 Gerber Fmt 4.6, Leading zero omitted, Abs format (unit mm)*
G04 Created by KiCad (PCBNEW 9.0.0) date 2025-05-25 15:05:46*
%MOMM*%
%LPD*%
G01*
G04 APERTURE LIST*
%ADD10C,0.100000*%
%ADD11C,0.010000*%
G04 APERTURE END LIST*
D10*
X146142972Y-105298419D02*
X145809639Y-106298419D01*
X145809639Y-106298419D02*
X145476306Y-105298419D01*
X144762020Y-106250800D02*
X144857258Y-106298419D01*
X144857258Y-106298419D02*
X145047734Y-106298419D01*
X145047734Y-106298419D02*
X145142972Y-106250800D01*
X145142972Y-106250800D02*
X145190591Y-106155561D01*
X145190591Y-106155561D02*
X145190591Y-105774609D01*
X145190591Y-105774609D02*
X145142972Y-105679371D01*
X145142972Y-105679371D02*
X145047734Y-105631752D01*
X145047734Y-105631752D02*
X144857258Y-105631752D01*
X144857258Y-105631752D02*
X144762020Y-105679371D01*
X144762020Y-105679371D02*
X144714401Y-105774609D01*
X144714401Y-105774609D02*
X144714401Y-105869847D01*
X144714401Y-105869847D02*
X145190591Y-105965085D01*
X144285829Y-106298419D02*
X144285829Y-105631752D01*
X144285829Y-105822228D02*
X144238210Y-105726990D01*
X144238210Y-105726990D02*
X144190591Y-105679371D01*
X144190591Y-105679371D02*
X144095353Y-105631752D01*
X144095353Y-105631752D02*
X144000115Y-105631752D01*
X143714400Y-106250800D02*
X143619162Y-106298419D01*
X143619162Y-106298419D02*
X143428686Y-106298419D01*
X143428686Y-106298419D02*
X143333448Y-106250800D01*
X143333448Y-106250800D02*
X143285829Y-106155561D01*
X143285829Y-106155561D02*
X143285829Y-106107942D01*
X143285829Y-106107942D02*
X143333448Y-106012704D01*
X143333448Y-106012704D02*
X143428686Y-105965085D01*
X143428686Y-105965085D02*
X143571543Y-105965085D01*
X143571543Y-105965085D02*
X143666781Y-105917466D01*
X143666781Y-105917466D02*
X143714400Y-105822228D01*
X143714400Y-105822228D02*
X143714400Y-105774609D01*
X143714400Y-105774609D02*
X143666781Y-105679371D01*
X143666781Y-105679371D02*
X143571543Y-105631752D01*
X143571543Y-105631752D02*
X143428686Y-105631752D01*
X143428686Y-105631752D02*
X143333448Y-105679371D01*
X142857257Y-106298419D02*
X142857257Y-105631752D01*
X142857257Y-105298419D02*
X142904876Y-105346038D01*
X142904876Y-105346038D02*
X142857257Y-105393657D01*
X142857257Y-105393657D02*
X142809638Y-105346038D01*
X142809638Y-105346038D02*
X142857257Y-105298419D01*
X142857257Y-105298419D02*
X142857257Y-105393657D01*
X142238210Y-106298419D02*
X142333448Y-106250800D01*
X142333448Y-106250800D02*
X142381067Y-106203180D01*
X142381067Y-106203180D02*
X142428686Y-106107942D01*
X142428686Y-106107942D02*
X142428686Y-105822228D01*
X142428686Y-105822228D02*
X142381067Y-105726990D01*
X142381067Y-105726990D02*
X142333448Y-105679371D01*
X142333448Y-105679371D02*
X142238210Y-105631752D01*
X142238210Y-105631752D02*
X142095353Y-105631752D01*
X142095353Y-105631752D02*
X142000115Y-105679371D01*
X142000115Y-105679371D02*
X141952496Y-105726990D01*
X141952496Y-105726990D02*
X141904877Y-105822228D01*
X141904877Y-105822228D02*
X141904877Y-106107942D01*
X141904877Y-106107942D02*
X141952496Y-106203180D01*
X141952496Y-106203180D02*
X142000115Y-106250800D01*
X142000115Y-106250800D02*
X142095353Y-106298419D01*
X142095353Y-106298419D02*
X142238210Y-106298419D01*
X141476305Y-105631752D02*
X141476305Y-106298419D01*
X141476305Y-105726990D02*
X141428686Y-105679371D01*
X141428686Y-105679371D02*
X141333448Y-105631752D01*
X141333448Y-105631752D02*
X141190591Y-105631752D01*
X141190591Y-105631752D02*
X141095353Y-105679371D01*
X141095353Y-105679371D02*
X141047734Y-105774609D01*
X141047734Y-105774609D02*
X141047734Y-106298419D01*
X139285829Y-106298419D02*
X139857257Y-106298419D01*
X139571543Y-106298419D02*
X139571543Y-105298419D01*
X139571543Y-105298419D02*
X139666781Y-105441276D01*
X139666781Y-105441276D02*
X139762019Y-105536514D01*
X139762019Y-105536514D02*
X139857257Y-105584133D01*
X138857257Y-106203180D02*
X138809638Y-106250800D01*
X138809638Y-106250800D02*
X138857257Y-106298419D01*
X138857257Y-106298419D02*
X138904876Y-106250800D01*
X138904876Y-106250800D02*
X138857257Y-106203180D01*
X138857257Y-106203180D02*
X138857257Y-106298419D01*
X138190591Y-105298419D02*
X138095353Y-105298419D01*
X138095353Y-105298419D02*
X138000115Y-105346038D01*
X138000115Y-105346038D02*
X137952496Y-105393657D01*
X137952496Y-105393657D02*
X137904877Y-105488895D01*
X137904877Y-105488895D02*
X137857258Y-105679371D01*
X137857258Y-105679371D02*
X137857258Y-105917466D01*
X137857258Y-105917466D02*
X137904877Y-106107942D01*
X137904877Y-106107942D02*
X137952496Y-106203180D01*
X137952496Y-106203180D02*
X138000115Y-106250800D01*
X138000115Y-106250800D02*
X138095353Y-106298419D01*
X138095353Y-106298419D02*
X138190591Y-106298419D01*
X138190591Y-106298419D02*
X138285829Y-106250800D01*
X138285829Y-106250800D02*
X138333448Y-106203180D01*
X138333448Y-106203180D02*
X138381067Y-106107942D01*
X138381067Y-106107942D02*
X138428686Y-105917466D01*
X138428686Y-105917466D02*
X138428686Y-105679371D01*
X138428686Y-105679371D02*
X138381067Y-105488895D01*
X138381067Y-105488895D02*
X138333448Y-105393657D01*
X138333448Y-105393657D02*
X138285829Y-105346038D01*
X138285829Y-105346038D02*
X138190591Y-105298419D01*
D11*
%TO.C,REF\u002A\u002A*%
X137841406Y-103112949D02*
X137867127Y-103128647D01*
X137893778Y-103150227D01*
X137893778Y-103797684D01*
X137867127Y-103819264D01*
X137835767Y-103836739D01*
X137799966Y-103837575D01*
X137768528Y-103817082D01*
X137764652Y-103812416D01*
X137759186Y-103802949D01*
X137754979Y-103789267D01*
X137751867Y-103768748D01*
X137749687Y-103738768D01*
X137748276Y-103696704D01*
X137747471Y-103639932D01*
X137747107Y-103565830D01*
X137747022Y-103471773D01*
X137747022Y-103150227D01*
X137773673Y-103128647D01*
X137797386Y-103113877D01*
X137820400Y-103107067D01*
X137841406Y-103112949D01*
G36*
X137841406Y-103112949D02*
G01*
X137867127Y-103128647D01*
X137893778Y-103150227D01*
X137893778Y-103797684D01*
X137867127Y-103819264D01*
X137835767Y-103836739D01*
X137799966Y-103837575D01*
X137768528Y-103817082D01*
X137764652Y-103812416D01*
X137759186Y-103802949D01*
X137754979Y-103789267D01*
X137751867Y-103768748D01*
X137749687Y-103738768D01*
X137748276Y-103696704D01*
X137747471Y-103639932D01*
X137747107Y-103565830D01*
X137747022Y-103471773D01*
X137747022Y-103150227D01*
X137773673Y-103128647D01*
X137797386Y-103113877D01*
X137820400Y-103107067D01*
X137841406Y-103112949D01*
G37*
X144972137Y-103111463D02*
X145006291Y-103134776D01*
X145034000Y-103162485D01*
X145034000Y-103475537D01*
X145033959Y-103559567D01*
X145033701Y-103633789D01*
X145033030Y-103690541D01*
X145031752Y-103732512D01*
X145029673Y-103762389D01*
X145026599Y-103782861D01*
X145022334Y-103796614D01*
X145016684Y-103806337D01*
X145009455Y-103814717D01*
X144977991Y-103836181D01*
X144942826Y-103837947D01*
X144909822Y-103818267D01*
X144904516Y-103812398D01*
X144899066Y-103803314D01*
X144894900Y-103789973D01*
X144891846Y-103769757D01*
X144889732Y-103740049D01*
X144888386Y-103698232D01*
X144887638Y-103641689D01*
X144887314Y-103567802D01*
X144887245Y-103473956D01*
X144887284Y-103398294D01*
X144887539Y-103320385D01*
X144888183Y-103260375D01*
X144889387Y-103215648D01*
X144891324Y-103183585D01*
X144894164Y-103161571D01*
X144898079Y-103146987D01*
X144903242Y-103137218D01*
X144909822Y-103129645D01*
X144939006Y-103110623D01*
X144972137Y-103111463D01*
G36*
X144972137Y-103111463D02*
G01*
X145006291Y-103134776D01*
X145034000Y-103162485D01*
X145034000Y-103475537D01*
X145033959Y-103559567D01*
X145033701Y-103633789D01*
X145033030Y-103690541D01*
X145031752Y-103732512D01*
X145029673Y-103762389D01*
X145026599Y-103782861D01*
X145022334Y-103796614D01*
X145016684Y-103806337D01*
X145009455Y-103814717D01*
X144977991Y-103836181D01*
X144942826Y-103837947D01*
X144909822Y-103818267D01*
X144904516Y-103812398D01*
X144899066Y-103803314D01*
X144894900Y-103789973D01*
X144891846Y-103769757D01*
X144889732Y-103740049D01*
X144888386Y-103698232D01*
X144887638Y-103641689D01*
X144887314Y-103567802D01*
X144887245Y-103473956D01*
X144887284Y-103398294D01*
X144887539Y-103320385D01*
X144888183Y-103260375D01*
X144889387Y-103215648D01*
X144891324Y-103183585D01*
X144894164Y-103161571D01*
X144898079Y-103146987D01*
X144903242Y-103137218D01*
X144909822Y-103129645D01*
X144939006Y-103110623D01*
X144972137Y-103111463D01*
G37*
X144440562Y-97870850D02*
X144523313Y-97898053D01*
X144598406Y-97943484D01*
X144670298Y-98009302D01*
X144708846Y-98053567D01*
X144748256Y-98111961D01*
X144773446Y-98172586D01*
X144786861Y-98241865D01*
X144790948Y-98326222D01*
X144790669Y-98372307D01*
X144788460Y-98413450D01*
X144782894Y-98445582D01*
X144772586Y-98476122D01*
X144756148Y-98512489D01*
X144742200Y-98539728D01*
X144683665Y-98625429D01*
X144611619Y-98694617D01*
X144527947Y-98745741D01*
X144434531Y-98777250D01*
X144401434Y-98784225D01*
X144360960Y-98791094D01*
X144327999Y-98792919D01*
X144293698Y-98789947D01*
X144249200Y-98782426D01*
X144197934Y-98770002D01*
X144107434Y-98732112D01*
X144028345Y-98677836D01*
X143962528Y-98609770D01*
X143911840Y-98530511D01*
X143878140Y-98442654D01*
X143863286Y-98348795D01*
X143869136Y-98251530D01*
X143895399Y-98155220D01*
X143940418Y-98066494D01*
X144001373Y-97991419D01*
X144076184Y-97931641D01*
X144162768Y-97888809D01*
X144259043Y-97864571D01*
X144362928Y-97860576D01*
X144440562Y-97870850D01*
G36*
X144440562Y-97870850D02*
G01*
X144523313Y-97898053D01*
X144598406Y-97943484D01*
X144670298Y-98009302D01*
X144708846Y-98053567D01*
X144748256Y-98111961D01*
X144773446Y-98172586D01*
X144786861Y-98241865D01*
X144790948Y-98326222D01*
X144790669Y-98372307D01*
X144788460Y-98413450D01*
X144782894Y-98445582D01*
X144772586Y-98476122D01*
X144756148Y-98512489D01*
X144742200Y-98539728D01*
X144683665Y-98625429D01*
X144611619Y-98694617D01*
X144527947Y-98745741D01*
X144434531Y-98777250D01*
X144401434Y-98784225D01*
X144360960Y-98791094D01*
X144327999Y-98792919D01*
X144293698Y-98789947D01*
X144249200Y-98782426D01*
X144197934Y-98770002D01*
X144107434Y-98732112D01*
X144028345Y-98677836D01*
X143962528Y-98609770D01*
X143911840Y-98530511D01*
X143878140Y-98442654D01*
X143863286Y-98348795D01*
X143869136Y-98251530D01*
X143895399Y-98155220D01*
X143940418Y-98066494D01*
X144001373Y-97991419D01*
X144076184Y-97931641D01*
X144162768Y-97888809D01*
X144259043Y-97864571D01*
X144362928Y-97860576D01*
X144440562Y-97870850D01*
G37*
X137141767Y-103107068D02*
X137235890Y-103107158D01*
X137310405Y-103107498D01*
X137367811Y-103108239D01*
X137410611Y-103109535D01*
X137441304Y-103111537D01*
X137462391Y-103114396D01*
X137476373Y-103118266D01*
X137485750Y-103123298D01*
X137493022Y-103129645D01*
X137511828Y-103162362D01*
X137513275Y-103199939D01*
X137496917Y-103233178D01*
X137495557Y-103234631D01*
X137484354Y-103242992D01*
X137467252Y-103248547D01*
X137440082Y-103251840D01*
X137398678Y-103253418D01*
X137338873Y-103253822D01*
X137199511Y-103253822D01*
X137199511Y-103517589D01*
X137199436Y-103593417D01*
X137199028Y-103660083D01*
X137198046Y-103709867D01*
X137196250Y-103745784D01*
X137193399Y-103770850D01*
X137189253Y-103788081D01*
X137183571Y-103800492D01*
X137176114Y-103811100D01*
X137173824Y-103813906D01*
X137142646Y-103836548D01*
X137108266Y-103838112D01*
X137075334Y-103818267D01*
X137068355Y-103810191D01*
X137062883Y-103799593D01*
X137058863Y-103783749D01*
X137056072Y-103759773D01*
X137054288Y-103724774D01*
X137053289Y-103675864D01*
X137052852Y-103610154D01*
X137052756Y-103524756D01*
X137052756Y-103253822D01*
X136906820Y-103253822D01*
X136895720Y-103253821D01*
X136839202Y-103253596D01*
X136800358Y-103252457D01*
X136774965Y-103249657D01*
X136758804Y-103244450D01*
X136747652Y-103236089D01*
X136737289Y-103223826D01*
X136721441Y-103193138D01*
X136724543Y-103159358D01*
X136750187Y-103126822D01*
X136755129Y-103123105D01*
X136765338Y-103118269D01*
X136780764Y-103114506D01*
X136803886Y-103111683D01*
X136837183Y-103109670D01*
X136883137Y-103108333D01*
X136944228Y-103107542D01*
X137022935Y-103107163D01*
X137121740Y-103107067D01*
X137141767Y-103107068D01*
G36*
X137141767Y-103107068D02*
G01*
X137235890Y-103107158D01*
X137310405Y-103107498D01*
X137367811Y-103108239D01*
X137410611Y-103109535D01*
X137441304Y-103111537D01*
X137462391Y-103114396D01*
X137476373Y-103118266D01*
X137485750Y-103123298D01*
X137493022Y-103129645D01*
X137511828Y-103162362D01*
X137513275Y-103199939D01*
X137496917Y-103233178D01*
X137495557Y-103234631D01*
X137484354Y-103242992D01*
X137467252Y-103248547D01*
X137440082Y-103251840D01*
X137398678Y-103253418D01*
X137338873Y-103253822D01*
X137199511Y-103253822D01*
X137199511Y-103517589D01*
X137199436Y-103593417D01*
X137199028Y-103660083D01*
X137198046Y-103709867D01*
X137196250Y-103745784D01*
X137193399Y-103770850D01*
X137189253Y-103788081D01*
X137183571Y-103800492D01*
X137176114Y-103811100D01*
X137173824Y-103813906D01*
X137142646Y-103836548D01*
X137108266Y-103838112D01*
X137075334Y-103818267D01*
X137068355Y-103810191D01*
X137062883Y-103799593D01*
X137058863Y-103783749D01*
X137056072Y-103759773D01*
X137054288Y-103724774D01*
X137053289Y-103675864D01*
X137052852Y-103610154D01*
X137052756Y-103524756D01*
X137052756Y-103253822D01*
X136906820Y-103253822D01*
X136895720Y-103253821D01*
X136839202Y-103253596D01*
X136800358Y-103252457D01*
X136774965Y-103249657D01*
X136758804Y-103244450D01*
X136747652Y-103236089D01*
X136737289Y-103223826D01*
X136721441Y-103193138D01*
X136724543Y-103159358D01*
X136750187Y-103126822D01*
X136755129Y-103123105D01*
X136765338Y-103118269D01*
X136780764Y-103114506D01*
X136803886Y-103111683D01*
X136837183Y-103109670D01*
X136883137Y-103108333D01*
X136944228Y-103107542D01*
X137022935Y-103107163D01*
X137121740Y-103107067D01*
X137141767Y-103107068D01*
G37*
X136465734Y-103129645D02*
X136471366Y-103135835D01*
X136476456Y-103144041D01*
X136480543Y-103155817D01*
X136483721Y-103173276D01*
X136486087Y-103198530D01*
X136487738Y-103233690D01*
X136488769Y-103280869D01*
X136489277Y-103342177D01*
X136489359Y-103419727D01*
X136489109Y-103515631D01*
X136488625Y-103632000D01*
X136488557Y-103646175D01*
X136487971Y-103707937D01*
X136486648Y-103751620D01*
X136484103Y-103781001D01*
X136479848Y-103799855D01*
X136473396Y-103811959D01*
X136464262Y-103821089D01*
X136430804Y-103838506D01*
X136395856Y-103835604D01*
X136364953Y-103811100D01*
X136355944Y-103797897D01*
X136348492Y-103779361D01*
X136344124Y-103753333D01*
X136342069Y-103714787D01*
X136341556Y-103658700D01*
X136341556Y-103536045D01*
X135844845Y-103536045D01*
X135844845Y-103670871D01*
X135844772Y-103706662D01*
X135844009Y-103752992D01*
X135841833Y-103783526D01*
X135837536Y-103802557D01*
X135830412Y-103814374D01*
X135819755Y-103823271D01*
X135787504Y-103838341D01*
X135752217Y-103835673D01*
X135721486Y-103811100D01*
X135716831Y-103804845D01*
X135710895Y-103794321D01*
X135706364Y-103780391D01*
X135703048Y-103760317D01*
X135700759Y-103731360D01*
X135699308Y-103690780D01*
X135698505Y-103635840D01*
X135698162Y-103563799D01*
X135698089Y-103471920D01*
X135698089Y-103162485D01*
X135725798Y-103134776D01*
X135757177Y-103112533D01*
X135790406Y-103109844D01*
X135822267Y-103129645D01*
X135830553Y-103139415D01*
X135837965Y-103155307D01*
X135842302Y-103179275D01*
X135844338Y-103216148D01*
X135844845Y-103270756D01*
X135844845Y-103389289D01*
X136341556Y-103389289D01*
X136341556Y-103273776D01*
X136341994Y-103222078D01*
X136343958Y-103187554D01*
X136348474Y-103164978D01*
X136356567Y-103149126D01*
X136369265Y-103134776D01*
X136400643Y-103112533D01*
X136433872Y-103109844D01*
X136465734Y-103129645D01*
G36*
X136465734Y-103129645D02*
G01*
X136471366Y-103135835D01*
X136476456Y-103144041D01*
X136480543Y-103155817D01*
X136483721Y-103173276D01*
X136486087Y-103198530D01*
X136487738Y-103233690D01*
X136488769Y-103280869D01*
X136489277Y-103342177D01*
X136489359Y-103419727D01*
X136489109Y-103515631D01*
X136488625Y-103632000D01*
X136488557Y-103646175D01*
X136487971Y-103707937D01*
X136486648Y-103751620D01*
X136484103Y-103781001D01*
X136479848Y-103799855D01*
X136473396Y-103811959D01*
X136464262Y-103821089D01*
X136430804Y-103838506D01*
X136395856Y-103835604D01*
X136364953Y-103811100D01*
X136355944Y-103797897D01*
X136348492Y-103779361D01*
X136344124Y-103753333D01*
X136342069Y-103714787D01*
X136341556Y-103658700D01*
X136341556Y-103536045D01*
X135844845Y-103536045D01*
X135844845Y-103670871D01*
X135844772Y-103706662D01*
X135844009Y-103752992D01*
X135841833Y-103783526D01*
X135837536Y-103802557D01*
X135830412Y-103814374D01*
X135819755Y-103823271D01*
X135787504Y-103838341D01*
X135752217Y-103835673D01*
X135721486Y-103811100D01*
X135716831Y-103804845D01*
X135710895Y-103794321D01*
X135706364Y-103780391D01*
X135703048Y-103760317D01*
X135700759Y-103731360D01*
X135699308Y-103690780D01*
X135698505Y-103635840D01*
X135698162Y-103563799D01*
X135698089Y-103471920D01*
X135698089Y-103162485D01*
X135725798Y-103134776D01*
X135757177Y-103112533D01*
X135790406Y-103109844D01*
X135822267Y-103129645D01*
X135830553Y-103139415D01*
X135837965Y-103155307D01*
X135842302Y-103179275D01*
X135844338Y-103216148D01*
X135844845Y-103270756D01*
X135844845Y-103389289D01*
X136341556Y-103389289D01*
X136341556Y-103273776D01*
X136341994Y-103222078D01*
X136343958Y-103187554D01*
X136348474Y-103164978D01*
X136356567Y-103149126D01*
X136369265Y-103134776D01*
X136400643Y-103112533D01*
X136433872Y-103109844D01*
X136465734Y-103129645D01*
G37*
X141171133Y-103718396D02*
X141169163Y-103751175D01*
X141166235Y-103774095D01*
X141162158Y-103789897D01*
X141156743Y-103801319D01*
X141149803Y-103811100D01*
X141126406Y-103840845D01*
X140960714Y-103840251D01*
X140925918Y-103839953D01*
X140827435Y-103836522D01*
X140746473Y-103828839D01*
X140679379Y-103816282D01*
X140622496Y-103798227D01*
X140572169Y-103774052D01*
X140568810Y-103772135D01*
X140510998Y-103735417D01*
X140468644Y-103698451D01*
X140435828Y-103654966D01*
X140406628Y-103598689D01*
X140402346Y-103589073D01*
X140379769Y-103525887D01*
X140374034Y-103480333D01*
X140523279Y-103480333D01*
X140528892Y-103505061D01*
X140534618Y-103520939D01*
X140567548Y-103580847D01*
X140614886Y-103626600D01*
X140678652Y-103659736D01*
X140760861Y-103681790D01*
X140763655Y-103682292D01*
X140809940Y-103688255D01*
X140866336Y-103692483D01*
X140921274Y-103694089D01*
X141015156Y-103694089D01*
X141015156Y-103253822D01*
X140927667Y-103254270D01*
X140860747Y-103256746D01*
X140768349Y-103267998D01*
X140689034Y-103287537D01*
X140627060Y-103314511D01*
X140596120Y-103335240D01*
X140568000Y-103365006D01*
X140544660Y-103407434D01*
X140537533Y-103423400D01*
X140525709Y-103455902D01*
X140523279Y-103480333D01*
X140374034Y-103480333D01*
X140372797Y-103470509D01*
X140381399Y-103415483D01*
X140405541Y-103353351D01*
X140406337Y-103351658D01*
X140446788Y-103282236D01*
X140497473Y-103225638D01*
X140560198Y-103181070D01*
X140636774Y-103147741D01*
X140729009Y-103124861D01*
X140838712Y-103111636D01*
X140967691Y-103107275D01*
X140971263Y-103107270D01*
X141031283Y-103107410D01*
X141073214Y-103108446D01*
X141101328Y-103111040D01*
X141119897Y-103115853D01*
X141133194Y-103123544D01*
X141145491Y-103134776D01*
X141173200Y-103162485D01*
X141173200Y-103471920D01*
X141173175Y-103533526D01*
X141172950Y-103612311D01*
X141172332Y-103673021D01*
X141171775Y-103694089D01*
X141171133Y-103718396D01*
G36*
X141171133Y-103718396D02*
G01*
X141169163Y-103751175D01*
X141166235Y-103774095D01*
X141162158Y-103789897D01*
X141156743Y-103801319D01*
X141149803Y-103811100D01*
X141126406Y-103840845D01*
X140960714Y-103840251D01*
X140925918Y-103839953D01*
X140827435Y-103836522D01*
X140746473Y-103828839D01*
X140679379Y-103816282D01*
X140622496Y-103798227D01*
X140572169Y-103774052D01*
X140568810Y-103772135D01*
X140510998Y-103735417D01*
X140468644Y-103698451D01*
X140435828Y-103654966D01*
X140406628Y-103598689D01*
X140402346Y-103589073D01*
X140379769Y-103525887D01*
X140374034Y-103480333D01*
X140523279Y-103480333D01*
X140528892Y-103505061D01*
X140534618Y-103520939D01*
X140567548Y-103580847D01*
X140614886Y-103626600D01*
X140678652Y-103659736D01*
X140760861Y-103681790D01*
X140763655Y-103682292D01*
X140809940Y-103688255D01*
X140866336Y-103692483D01*
X140921274Y-103694089D01*
X141015156Y-103694089D01*
X141015156Y-103253822D01*
X140927667Y-103254270D01*
X140860747Y-103256746D01*
X140768349Y-103267998D01*
X140689034Y-103287537D01*
X140627060Y-103314511D01*
X140596120Y-103335240D01*
X140568000Y-103365006D01*
X140544660Y-103407434D01*
X140537533Y-103423400D01*
X140525709Y-103455902D01*
X140523279Y-103480333D01*
X140374034Y-103480333D01*
X140372797Y-103470509D01*
X140381399Y-103415483D01*
X140405541Y-103353351D01*
X140406337Y-103351658D01*
X140446788Y-103282236D01*
X140497473Y-103225638D01*
X140560198Y-103181070D01*
X140636774Y-103147741D01*
X140729009Y-103124861D01*
X140838712Y-103111636D01*
X140967691Y-103107275D01*
X140971263Y-103107270D01*
X141031283Y-103107410D01*
X141073214Y-103108446D01*
X141101328Y-103111040D01*
X141119897Y-103115853D01*
X141133194Y-103123544D01*
X141145491Y-103134776D01*
X141173200Y-103162485D01*
X141173200Y-103471920D01*
X141173175Y-103533526D01*
X141172950Y-103612311D01*
X141172332Y-103673021D01*
X141171775Y-103694089D01*
X141171133Y-103718396D01*
G37*
X148262817Y-103292427D02*
X148262870Y-103373041D01*
X148262622Y-103473956D01*
X148262583Y-103549617D01*
X148262328Y-103627526D01*
X148261684Y-103687536D01*
X148260480Y-103732264D01*
X148258543Y-103764326D01*
X148255703Y-103786340D01*
X148251788Y-103800924D01*
X148246626Y-103810694D01*
X148240045Y-103818267D01*
X148233077Y-103824501D01*
X148220079Y-103831801D01*
X148200931Y-103836554D01*
X148171528Y-103839292D01*
X148127762Y-103840545D01*
X148065528Y-103840845D01*
X148016582Y-103840469D01*
X147909722Y-103836041D01*
X147820494Y-103825953D01*
X147745696Y-103809365D01*
X147682125Y-103785435D01*
X147626579Y-103753321D01*
X147575854Y-103712182D01*
X147569866Y-103706330D01*
X147532999Y-103657821D01*
X147501899Y-103597013D01*
X147480417Y-103532769D01*
X147475136Y-103494026D01*
X147622353Y-103494026D01*
X147640635Y-103544961D01*
X147670305Y-103590878D01*
X147717002Y-103633287D01*
X147778392Y-103663090D01*
X147857538Y-103682226D01*
X147859028Y-103682464D01*
X147907999Y-103688256D01*
X147966693Y-103692396D01*
X148022734Y-103694004D01*
X148115867Y-103694089D01*
X148115867Y-103253822D01*
X148039667Y-103253808D01*
X148036639Y-103253817D01*
X147985519Y-103255782D01*
X147925416Y-103260507D01*
X147868708Y-103267035D01*
X147818750Y-103276331D01*
X147743998Y-103302600D01*
X147686489Y-103341899D01*
X147644988Y-103394933D01*
X147623771Y-103446200D01*
X147622353Y-103494026D01*
X147475136Y-103494026D01*
X147472400Y-103473956D01*
X147473679Y-103452739D01*
X147485991Y-103395323D01*
X147508520Y-103335413D01*
X147537750Y-103281363D01*
X147570167Y-103241532D01*
X147589708Y-103224510D01*
X147644420Y-103185322D01*
X147704723Y-103155193D01*
X147773919Y-103133232D01*
X147855311Y-103118550D01*
X147952200Y-103110259D01*
X148067889Y-103107467D01*
X148107371Y-103107066D01*
X148153082Y-103106653D01*
X148188883Y-103108457D01*
X148215974Y-103114739D01*
X148235556Y-103127759D01*
X148248830Y-103149778D01*
X148256998Y-103183055D01*
X148261260Y-103229851D01*
X148261857Y-103253822D01*
X148262817Y-103292427D01*
G36*
X148262817Y-103292427D02*
G01*
X148262870Y-103373041D01*
X148262622Y-103473956D01*
X148262583Y-103549617D01*
X148262328Y-103627526D01*
X148261684Y-103687536D01*
X148260480Y-103732264D01*
X148258543Y-103764326D01*
X148255703Y-103786340D01*
X148251788Y-103800924D01*
X148246626Y-103810694D01*
X148240045Y-103818267D01*
X148233077Y-103824501D01*
X148220079Y-103831801D01*
X148200931Y-103836554D01*
X148171528Y-103839292D01*
X148127762Y-103840545D01*
X148065528Y-103840845D01*
X148016582Y-103840469D01*
X147909722Y-103836041D01*
X147820494Y-103825953D01*
X147745696Y-103809365D01*
X147682125Y-103785435D01*
X147626579Y-103753321D01*
X147575854Y-103712182D01*
X147569866Y-103706330D01*
X147532999Y-103657821D01*
X147501899Y-103597013D01*
X147480417Y-103532769D01*
X147475136Y-103494026D01*
X147622353Y-103494026D01*
X147640635Y-103544961D01*
X147670305Y-103590878D01*
X147717002Y-103633287D01*
X147778392Y-103663090D01*
X147857538Y-103682226D01*
X147859028Y-103682464D01*
X147907999Y-103688256D01*
X147966693Y-103692396D01*
X148022734Y-103694004D01*
X148115867Y-103694089D01*
X148115867Y-103253822D01*
X148039667Y-103253808D01*
X148036639Y-103253817D01*
X147985519Y-103255782D01*
X147925416Y-103260507D01*
X147868708Y-103267035D01*
X147818750Y-103276331D01*
X147743998Y-103302600D01*
X147686489Y-103341899D01*
X147644988Y-103394933D01*
X147623771Y-103446200D01*
X147622353Y-103494026D01*
X147475136Y-103494026D01*
X147472400Y-103473956D01*
X147473679Y-103452739D01*
X147485991Y-103395323D01*
X147508520Y-103335413D01*
X147537750Y-103281363D01*
X147570167Y-103241532D01*
X147589708Y-103224510D01*
X147644420Y-103185322D01*
X147704723Y-103155193D01*
X147773919Y-103133232D01*
X147855311Y-103118550D01*
X147952200Y-103110259D01*
X148067889Y-103107467D01*
X148107371Y-103107066D01*
X148153082Y-103106653D01*
X148188883Y-103108457D01*
X148215974Y-103114739D01*
X148235556Y-103127759D01*
X148248830Y-103149778D01*
X148256998Y-103183055D01*
X148261260Y-103229851D01*
X148261857Y-103253822D01*
X148262817Y-103292427D01*
G37*
X143317893Y-103105892D02*
X143329301Y-103112029D01*
X143339850Y-103122691D01*
X143351136Y-103136811D01*
X143355589Y-103142772D01*
X143361588Y-103153268D01*
X143366167Y-103167093D01*
X143369519Y-103186998D01*
X143371833Y-103215732D01*
X143373301Y-103256045D01*
X143374113Y-103310687D01*
X143374460Y-103382407D01*
X143374534Y-103473956D01*
X143374511Y-103532486D01*
X143374292Y-103611573D01*
X143373683Y-103672516D01*
X143372492Y-103718062D01*
X143370529Y-103750963D01*
X143367603Y-103773968D01*
X143363523Y-103789826D01*
X143358097Y-103801286D01*
X143351136Y-103811100D01*
X143320708Y-103835493D01*
X143285765Y-103838372D01*
X143248784Y-103819282D01*
X143244600Y-103815807D01*
X143236424Y-103807279D01*
X143230364Y-103795728D01*
X143225981Y-103777896D01*
X143222839Y-103750524D01*
X143220502Y-103710354D01*
X143218531Y-103654128D01*
X143216489Y-103578589D01*
X143210845Y-103359458D01*
X142945556Y-103600099D01*
X142871722Y-103666875D01*
X142806542Y-103724991D01*
X142754348Y-103769949D01*
X142713273Y-103802871D01*
X142681455Y-103824879D01*
X142657026Y-103837094D01*
X142638124Y-103840639D01*
X142622883Y-103836636D01*
X142609439Y-103826207D01*
X142595927Y-103810474D01*
X142589682Y-103801991D01*
X142584050Y-103791413D01*
X142579839Y-103777255D01*
X142576887Y-103756803D01*
X142575032Y-103727342D01*
X142574113Y-103686161D01*
X142573968Y-103630544D01*
X142574435Y-103557779D01*
X142575352Y-103465151D01*
X142578667Y-103150199D01*
X142605318Y-103128633D01*
X142631383Y-103112441D01*
X142664241Y-103109670D01*
X142698772Y-103128623D01*
X142703084Y-103132208D01*
X142711216Y-103140737D01*
X142717245Y-103152329D01*
X142721606Y-103170235D01*
X142724734Y-103197706D01*
X142727063Y-103237994D01*
X142729029Y-103294351D01*
X142731067Y-103370029D01*
X142736711Y-103589878D01*
X142917334Y-103426084D01*
X143004072Y-103347451D01*
X143079843Y-103279058D01*
X143141980Y-103223708D01*
X143192078Y-103180338D01*
X143231735Y-103147881D01*
X143262548Y-103125273D01*
X143286114Y-103111448D01*
X143304030Y-103105343D01*
X143317893Y-103105892D01*
G36*
X143317893Y-103105892D02*
G01*
X143329301Y-103112029D01*
X143339850Y-103122691D01*
X143351136Y-103136811D01*
X143355589Y-103142772D01*
X143361588Y-103153268D01*
X143366167Y-103167093D01*
X143369519Y-103186998D01*
X143371833Y-103215732D01*
X143373301Y-103256045D01*
X143374113Y-103310687D01*
X143374460Y-103382407D01*
X143374534Y-103473956D01*
X143374511Y-103532486D01*
X143374292Y-103611573D01*
X143373683Y-103672516D01*
X143372492Y-103718062D01*
X143370529Y-103750963D01*
X143367603Y-103773968D01*
X143363523Y-103789826D01*
X143358097Y-103801286D01*
X143351136Y-103811100D01*
X143320708Y-103835493D01*
X143285765Y-103838372D01*
X143248784Y-103819282D01*
X143244600Y-103815807D01*
X143236424Y-103807279D01*
X143230364Y-103795728D01*
X143225981Y-103777896D01*
X143222839Y-103750524D01*
X143220502Y-103710354D01*
X143218531Y-103654128D01*
X143216489Y-103578589D01*
X143210845Y-103359458D01*
X142945556Y-103600099D01*
X142871722Y-103666875D01*
X142806542Y-103724991D01*
X142754348Y-103769949D01*
X142713273Y-103802871D01*
X142681455Y-103824879D01*
X142657026Y-103837094D01*
X142638124Y-103840639D01*
X142622883Y-103836636D01*
X142609439Y-103826207D01*
X142595927Y-103810474D01*
X142589682Y-103801991D01*
X142584050Y-103791413D01*
X142579839Y-103777255D01*
X142576887Y-103756803D01*
X142575032Y-103727342D01*
X142574113Y-103686161D01*
X142573968Y-103630544D01*
X142574435Y-103557779D01*
X142575352Y-103465151D01*
X142578667Y-103150199D01*
X142605318Y-103128633D01*
X142631383Y-103112441D01*
X142664241Y-103109670D01*
X142698772Y-103128623D01*
X142703084Y-103132208D01*
X142711216Y-103140737D01*
X142717245Y-103152329D01*
X142721606Y-103170235D01*
X142724734Y-103197706D01*
X142727063Y-103237994D01*
X142729029Y-103294351D01*
X142731067Y-103370029D01*
X142736711Y-103589878D01*
X142917334Y-103426084D01*
X143004072Y-103347451D01*
X143079843Y-103279058D01*
X143141980Y-103223708D01*
X143192078Y-103180338D01*
X143231735Y-103147881D01*
X143262548Y-103125273D01*
X143286114Y-103111448D01*
X143304030Y-103105343D01*
X143317893Y-103105892D01*
G37*
X144115150Y-103112179D02*
X144221157Y-103128494D01*
X144314969Y-103156545D01*
X144393765Y-103195452D01*
X144454719Y-103244334D01*
X144480789Y-103277195D01*
X144510297Y-103326394D01*
X144535568Y-103380252D01*
X144553218Y-103431419D01*
X144559858Y-103472544D01*
X144558298Y-103492259D01*
X144545357Y-103543592D01*
X144522194Y-103600118D01*
X144492302Y-103654035D01*
X144459173Y-103697539D01*
X144448977Y-103707887D01*
X144381892Y-103759662D01*
X144301766Y-103799554D01*
X144215556Y-103823956D01*
X144160592Y-103832068D01*
X144067139Y-103838673D01*
X143977358Y-103836586D01*
X143894869Y-103826340D01*
X143823286Y-103808470D01*
X143766228Y-103783508D01*
X143727311Y-103751988D01*
X143725936Y-103750012D01*
X143718848Y-103724786D01*
X143714609Y-103677535D01*
X143713200Y-103608071D01*
X143714060Y-103545838D01*
X143718780Y-103498456D01*
X143730470Y-103466353D01*
X143752239Y-103446800D01*
X143787198Y-103437070D01*
X143838456Y-103434433D01*
X143909123Y-103436161D01*
X143957743Y-103439173D01*
X144007939Y-103447366D01*
X144040433Y-103461419D01*
X144057892Y-103482654D01*
X144062983Y-103512394D01*
X144062877Y-103516936D01*
X144054175Y-103551730D01*
X144030165Y-103575147D01*
X143988900Y-103588347D01*
X143928431Y-103592489D01*
X143859956Y-103592489D01*
X143859956Y-103630841D01*
X143860006Y-103639976D01*
X143862227Y-103657227D01*
X143871494Y-103667521D01*
X143892875Y-103674459D01*
X143931436Y-103681641D01*
X143936910Y-103682575D01*
X144033860Y-103692478D01*
X144123852Y-103689559D01*
X144204760Y-103674829D01*
X144274459Y-103649299D01*
X144330824Y-103613978D01*
X144371729Y-103569879D01*
X144395051Y-103518012D01*
X144398663Y-103459388D01*
X144393145Y-103430494D01*
X144366461Y-103374604D01*
X144320273Y-103328945D01*
X144255291Y-103294108D01*
X144172229Y-103270690D01*
X144147555Y-103266241D01*
X144058226Y-103255742D01*
X143978419Y-103256971D01*
X143900326Y-103269906D01*
X143865183Y-103276696D01*
X143819745Y-103277713D01*
X143788430Y-103265182D01*
X143768277Y-103238395D01*
X143761893Y-103210148D01*
X143771379Y-103178924D01*
X143780708Y-103165499D01*
X143814943Y-103141967D01*
X143867565Y-103124095D01*
X143936081Y-103112599D01*
X144018000Y-103108192D01*
X144115150Y-103112179D01*
G36*
X144115150Y-103112179D02*
G01*
X144221157Y-103128494D01*
X144314969Y-103156545D01*
X144393765Y-103195452D01*
X144454719Y-103244334D01*
X144480789Y-103277195D01*
X144510297Y-103326394D01*
X144535568Y-103380252D01*
X144553218Y-103431419D01*
X144559858Y-103472544D01*
X144558298Y-103492259D01*
X144545357Y-103543592D01*
X144522194Y-103600118D01*
X144492302Y-103654035D01*
X144459173Y-103697539D01*
X144448977Y-103707887D01*
X144381892Y-103759662D01*
X144301766Y-103799554D01*
X144215556Y-103823956D01*
X144160592Y-103832068D01*
X144067139Y-103838673D01*
X143977358Y-103836586D01*
X143894869Y-103826340D01*
X143823286Y-103808470D01*
X143766228Y-103783508D01*
X143727311Y-103751988D01*
X143725936Y-103750012D01*
X143718848Y-103724786D01*
X143714609Y-103677535D01*
X143713200Y-103608071D01*
X143714060Y-103545838D01*
X143718780Y-103498456D01*
X143730470Y-103466353D01*
X143752239Y-103446800D01*
X143787198Y-103437070D01*
X143838456Y-103434433D01*
X143909123Y-103436161D01*
X143957743Y-103439173D01*
X144007939Y-103447366D01*
X144040433Y-103461419D01*
X144057892Y-103482654D01*
X144062983Y-103512394D01*
X144062877Y-103516936D01*
X144054175Y-103551730D01*
X144030165Y-103575147D01*
X143988900Y-103588347D01*
X143928431Y-103592489D01*
X143859956Y-103592489D01*
X143859956Y-103630841D01*
X143860006Y-103639976D01*
X143862227Y-103657227D01*
X143871494Y-103667521D01*
X143892875Y-103674459D01*
X143931436Y-103681641D01*
X143936910Y-103682575D01*
X144033860Y-103692478D01*
X144123852Y-103689559D01*
X144204760Y-103674829D01*
X144274459Y-103649299D01*
X144330824Y-103613978D01*
X144371729Y-103569879D01*
X144395051Y-103518012D01*
X144398663Y-103459388D01*
X144393145Y-103430494D01*
X144366461Y-103374604D01*
X144320273Y-103328945D01*
X144255291Y-103294108D01*
X144172229Y-103270690D01*
X144147555Y-103266241D01*
X144058226Y-103255742D01*
X143978419Y-103256971D01*
X143900326Y-103269906D01*
X143865183Y-103276696D01*
X143819745Y-103277713D01*
X143788430Y-103265182D01*
X143768277Y-103238395D01*
X143761893Y-103210148D01*
X143771379Y-103178924D01*
X143780708Y-103165499D01*
X143814943Y-103141967D01*
X143867565Y-103124095D01*
X143936081Y-103112599D01*
X144018000Y-103108192D01*
X144115150Y-103112179D01*
G37*
X142165803Y-103136811D02*
X142170752Y-103143495D01*
X142176596Y-103154066D01*
X142181057Y-103168153D01*
X142184321Y-103188478D01*
X142186574Y-103217765D01*
X142188002Y-103258737D01*
X142188792Y-103314117D01*
X142189129Y-103386628D01*
X142189200Y-103478994D01*
X142189171Y-103544911D01*
X142188939Y-103623228D01*
X142188319Y-103683496D01*
X142187126Y-103728393D01*
X142185179Y-103760602D01*
X142182294Y-103782800D01*
X142178288Y-103797669D01*
X142172979Y-103807889D01*
X142166183Y-103816138D01*
X142161668Y-103820795D01*
X142153438Y-103827282D01*
X142142078Y-103832194D01*
X142124810Y-103835749D01*
X142098855Y-103838167D01*
X142061436Y-103839667D01*
X142009773Y-103840467D01*
X141941089Y-103840787D01*
X141852606Y-103840845D01*
X141832931Y-103840838D01*
X141745906Y-103840572D01*
X141678254Y-103839806D01*
X141627299Y-103838392D01*
X141590367Y-103836180D01*
X141564783Y-103833022D01*
X141547871Y-103828769D01*
X141536957Y-103823271D01*
X141526464Y-103813285D01*
X141513203Y-103782168D01*
X141514386Y-103746280D01*
X141530550Y-103714733D01*
X141532739Y-103712457D01*
X141541427Y-103706189D01*
X141554769Y-103701523D01*
X141575752Y-103698227D01*
X141607363Y-103696068D01*
X141652590Y-103694814D01*
X141714420Y-103694231D01*
X141795839Y-103694089D01*
X142042445Y-103694089D01*
X142042445Y-103536045D01*
X141880006Y-103536045D01*
X141844338Y-103535964D01*
X141788568Y-103535167D01*
X141749430Y-103533162D01*
X141722976Y-103529521D01*
X141705259Y-103523812D01*
X141692329Y-103515607D01*
X141688686Y-103512423D01*
X141670278Y-103481448D01*
X141669644Y-103445112D01*
X141687183Y-103411493D01*
X141687245Y-103411424D01*
X141696916Y-103402798D01*
X141710209Y-103396742D01*
X141730917Y-103392811D01*
X141762828Y-103390556D01*
X141809734Y-103389531D01*
X141875424Y-103389289D01*
X142043571Y-103389289D01*
X142040186Y-103324378D01*
X142036800Y-103259467D01*
X141794723Y-103256414D01*
X141769707Y-103256086D01*
X141688087Y-103254606D01*
X141625768Y-103252222D01*
X141580154Y-103248227D01*
X141548652Y-103241913D01*
X141528667Y-103232574D01*
X141517604Y-103219503D01*
X141512869Y-103201992D01*
X141511867Y-103179335D01*
X141511873Y-103176970D01*
X141513027Y-103156939D01*
X141517824Y-103141146D01*
X141528632Y-103129090D01*
X141547817Y-103120267D01*
X141577745Y-103114175D01*
X141620783Y-103110311D01*
X141679299Y-103108174D01*
X141755657Y-103107260D01*
X141852226Y-103107067D01*
X142142406Y-103107067D01*
X142165803Y-103136811D01*
G36*
X142165803Y-103136811D02*
G01*
X142170752Y-103143495D01*
X142176596Y-103154066D01*
X142181057Y-103168153D01*
X142184321Y-103188478D01*
X142186574Y-103217765D01*
X142188002Y-103258737D01*
X142188792Y-103314117D01*
X142189129Y-103386628D01*
X142189200Y-103478994D01*
X142189171Y-103544911D01*
X142188939Y-103623228D01*
X142188319Y-103683496D01*
X142187126Y-103728393D01*
X142185179Y-103760602D01*
X142182294Y-103782800D01*
X142178288Y-103797669D01*
X142172979Y-103807889D01*
X142166183Y-103816138D01*
X142161668Y-103820795D01*
X142153438Y-103827282D01*
X142142078Y-103832194D01*
X142124810Y-103835749D01*
X142098855Y-103838167D01*
X142061436Y-103839667D01*
X142009773Y-103840467D01*
X141941089Y-103840787D01*
X141852606Y-103840845D01*
X141832931Y-103840838D01*
X141745906Y-103840572D01*
X141678254Y-103839806D01*
X141627299Y-103838392D01*
X141590367Y-103836180D01*
X141564783Y-103833022D01*
X141547871Y-103828769D01*
X141536957Y-103823271D01*
X141526464Y-103813285D01*
X141513203Y-103782168D01*
X141514386Y-103746280D01*
X141530550Y-103714733D01*
X141532739Y-103712457D01*
X141541427Y-103706189D01*
X141554769Y-103701523D01*
X141575752Y-103698227D01*
X141607363Y-103696068D01*
X141652590Y-103694814D01*
X141714420Y-103694231D01*
X141795839Y-103694089D01*
X142042445Y-103694089D01*
X142042445Y-103536045D01*
X141880006Y-103536045D01*
X141844338Y-103535964D01*
X141788568Y-103535167D01*
X141749430Y-103533162D01*
X141722976Y-103529521D01*
X141705259Y-103523812D01*
X141692329Y-103515607D01*
X141688686Y-103512423D01*
X141670278Y-103481448D01*
X141669644Y-103445112D01*
X141687183Y-103411493D01*
X141687245Y-103411424D01*
X141696916Y-103402798D01*
X141710209Y-103396742D01*
X141730917Y-103392811D01*
X141762828Y-103390556D01*
X141809734Y-103389531D01*
X141875424Y-103389289D01*
X142043571Y-103389289D01*
X142040186Y-103324378D01*
X142036800Y-103259467D01*
X141794723Y-103256414D01*
X141769707Y-103256086D01*
X141688087Y-103254606D01*
X141625768Y-103252222D01*
X141580154Y-103248227D01*
X141548652Y-103241913D01*
X141528667Y-103232574D01*
X141517604Y-103219503D01*
X141512869Y-103201992D01*
X141511867Y-103179335D01*
X141511873Y-103176970D01*
X141513027Y-103156939D01*
X141517824Y-103141146D01*
X141528632Y-103129090D01*
X141547817Y-103120267D01*
X141577745Y-103114175D01*
X141620783Y-103110311D01*
X141679299Y-103108174D01*
X141755657Y-103107260D01*
X141852226Y-103107067D01*
X142142406Y-103107067D01*
X142165803Y-103136811D01*
G37*
X146842734Y-103107083D02*
X146919831Y-103107275D01*
X146978777Y-103107860D01*
X147022364Y-103109051D01*
X147053383Y-103111064D01*
X147074625Y-103114112D01*
X147088882Y-103118409D01*
X147098945Y-103124172D01*
X147107606Y-103131612D01*
X147109391Y-103133293D01*
X147116635Y-103140832D01*
X147122277Y-103149850D01*
X147126517Y-103162984D01*
X147129556Y-103182872D01*
X147131594Y-103212151D01*
X147132830Y-103253458D01*
X147133465Y-103309431D01*
X147133700Y-103382707D01*
X147133734Y-103475923D01*
X147133697Y-103548713D01*
X147133448Y-103626889D01*
X147132812Y-103687103D01*
X147131615Y-103731982D01*
X147129684Y-103764152D01*
X147126846Y-103786239D01*
X147122927Y-103800870D01*
X147117755Y-103810670D01*
X147111156Y-103818267D01*
X147107822Y-103821444D01*
X147099300Y-103827554D01*
X147087298Y-103832229D01*
X147069087Y-103835659D01*
X147041940Y-103838036D01*
X147003129Y-103839552D01*
X146949924Y-103840398D01*
X146879598Y-103840765D01*
X146789422Y-103840845D01*
X146747314Y-103840833D01*
X146666167Y-103840651D01*
X146603675Y-103840098D01*
X146557109Y-103838982D01*
X146523741Y-103837113D01*
X146500844Y-103834298D01*
X146485688Y-103830346D01*
X146475546Y-103825066D01*
X146467689Y-103818267D01*
X146452963Y-103796667D01*
X146445111Y-103767467D01*
X146450610Y-103743560D01*
X146467689Y-103716667D01*
X146472668Y-103712059D01*
X146482443Y-103705772D01*
X146496559Y-103701146D01*
X146518054Y-103697930D01*
X146549968Y-103695870D01*
X146595342Y-103694712D01*
X146657213Y-103694202D01*
X146738622Y-103694089D01*
X146986978Y-103694089D01*
X146986978Y-103536045D01*
X146825801Y-103536045D01*
X146789983Y-103535899D01*
X146724359Y-103534176D01*
X146677118Y-103529741D01*
X146645383Y-103521637D01*
X146626277Y-103508906D01*
X146616923Y-103490592D01*
X146614445Y-103465738D01*
X146615242Y-103445482D01*
X146620494Y-103423656D01*
X146633288Y-103408304D01*
X146656628Y-103398309D01*
X146693517Y-103392553D01*
X146746959Y-103389919D01*
X146819958Y-103389289D01*
X146988105Y-103389289D01*
X146984719Y-103324378D01*
X146981334Y-103259467D01*
X146733617Y-103256418D01*
X146671026Y-103255539D01*
X146602565Y-103254095D01*
X146551661Y-103252164D01*
X146515408Y-103249514D01*
X146490901Y-103245910D01*
X146475235Y-103241121D01*
X146465506Y-103234913D01*
X146459491Y-103228510D01*
X146446482Y-103196828D01*
X146450043Y-103161142D01*
X146469818Y-103130084D01*
X146473069Y-103127161D01*
X146482049Y-103120810D01*
X146494153Y-103115957D01*
X146512159Y-103112403D01*
X146538847Y-103109946D01*
X146576997Y-103108385D01*
X146629386Y-103107518D01*
X146698794Y-103107146D01*
X146788001Y-103107067D01*
X146842734Y-103107083D01*
G36*
X146842734Y-103107083D02*
G01*
X146919831Y-103107275D01*
X146978777Y-103107860D01*
X147022364Y-103109051D01*
X147053383Y-103111064D01*
X147074625Y-103114112D01*
X147088882Y-103118409D01*
X147098945Y-103124172D01*
X147107606Y-103131612D01*
X147109391Y-103133293D01*
X147116635Y-103140832D01*
X147122277Y-103149850D01*
X147126517Y-103162984D01*
X147129556Y-103182872D01*
X147131594Y-103212151D01*
X147132830Y-103253458D01*
X147133465Y-103309431D01*
X147133700Y-103382707D01*
X147133734Y-103475923D01*
X147133697Y-103548713D01*
X147133448Y-103626889D01*
X147132812Y-103687103D01*
X147131615Y-103731982D01*
X147129684Y-103764152D01*
X147126846Y-103786239D01*
X147122927Y-103800870D01*
X147117755Y-103810670D01*
X147111156Y-103818267D01*
X147107822Y-103821444D01*
X147099300Y-103827554D01*
X147087298Y-103832229D01*
X147069087Y-103835659D01*
X147041940Y-103838036D01*
X147003129Y-103839552D01*
X146949924Y-103840398D01*
X146879598Y-103840765D01*
X146789422Y-103840845D01*
X146747314Y-103840833D01*
X146666167Y-103840651D01*
X146603675Y-103840098D01*
X146557109Y-103838982D01*
X146523741Y-103837113D01*
X146500844Y-103834298D01*
X146485688Y-103830346D01*
X146475546Y-103825066D01*
X146467689Y-103818267D01*
X146452963Y-103796667D01*
X146445111Y-103767467D01*
X146450610Y-103743560D01*
X146467689Y-103716667D01*
X146472668Y-103712059D01*
X146482443Y-103705772D01*
X146496559Y-103701146D01*
X146518054Y-103697930D01*
X146549968Y-103695870D01*
X146595342Y-103694712D01*
X146657213Y-103694202D01*
X146738622Y-103694089D01*
X146986978Y-103694089D01*
X146986978Y-103536045D01*
X146825801Y-103536045D01*
X146789983Y-103535899D01*
X146724359Y-103534176D01*
X146677118Y-103529741D01*
X146645383Y-103521637D01*
X146626277Y-103508906D01*
X146616923Y-103490592D01*
X146614445Y-103465738D01*
X146615242Y-103445482D01*
X146620494Y-103423656D01*
X146633288Y-103408304D01*
X146656628Y-103398309D01*
X146693517Y-103392553D01*
X146746959Y-103389919D01*
X146819958Y-103389289D01*
X146988105Y-103389289D01*
X146984719Y-103324378D01*
X146981334Y-103259467D01*
X146733617Y-103256418D01*
X146671026Y-103255539D01*
X146602565Y-103254095D01*
X146551661Y-103252164D01*
X146515408Y-103249514D01*
X146490901Y-103245910D01*
X146475235Y-103241121D01*
X146465506Y-103234913D01*
X146459491Y-103228510D01*
X146446482Y-103196828D01*
X146450043Y-103161142D01*
X146469818Y-103130084D01*
X146473069Y-103127161D01*
X146482049Y-103120810D01*
X146494153Y-103115957D01*
X146512159Y-103112403D01*
X146538847Y-103109946D01*
X146576997Y-103108385D01*
X146629386Y-103107518D01*
X146698794Y-103107146D01*
X146788001Y-103107067D01*
X146842734Y-103107083D01*
G37*
X138275702Y-103116478D02*
X138293663Y-103134989D01*
X138314263Y-103166071D01*
X138339095Y-103211756D01*
X138369750Y-103274078D01*
X138407820Y-103355071D01*
X138422454Y-103386454D01*
X138452203Y-103449638D01*
X138478297Y-103504244D01*
X138499292Y-103547290D01*
X138513739Y-103575793D01*
X138520191Y-103586770D01*
X138521550Y-103586189D01*
X138531542Y-103572242D01*
X138548833Y-103542704D01*
X138571430Y-103501087D01*
X138597338Y-103450903D01*
X138613311Y-103419414D01*
X138642261Y-103364061D01*
X138664749Y-103325044D01*
X138682965Y-103299566D01*
X138699096Y-103284831D01*
X138715330Y-103278042D01*
X138733857Y-103276400D01*
X138744360Y-103276875D01*
X138760476Y-103281082D01*
X138775790Y-103291946D01*
X138792388Y-103312219D01*
X138812357Y-103344654D01*
X138837783Y-103392004D01*
X138870752Y-103457022D01*
X138880485Y-103476277D01*
X138904943Y-103522946D01*
X138925178Y-103559109D01*
X138939311Y-103581497D01*
X138945460Y-103586845D01*
X138946827Y-103583573D01*
X138956202Y-103562664D01*
X138973062Y-103525725D01*
X138995979Y-103475874D01*
X139023520Y-103416226D01*
X139054255Y-103349898D01*
X139080970Y-103292677D01*
X139110593Y-103230688D01*
X139133664Y-103184949D01*
X139151643Y-103152908D01*
X139165990Y-103132014D01*
X139178166Y-103119718D01*
X139189632Y-103113466D01*
X139199042Y-103110574D01*
X139224147Y-103110425D01*
X139251290Y-103125768D01*
X139252590Y-103126753D01*
X139274674Y-103149388D01*
X139285723Y-103171613D01*
X139285769Y-103172253D01*
X139281228Y-103189915D01*
X139268364Y-103224481D01*
X139248605Y-103272826D01*
X139223381Y-103331825D01*
X139194119Y-103398355D01*
X139162250Y-103469291D01*
X139129201Y-103541507D01*
X139096401Y-103611880D01*
X139065280Y-103677285D01*
X139037265Y-103734597D01*
X139013786Y-103780692D01*
X138996272Y-103812446D01*
X138986151Y-103826733D01*
X138951743Y-103840102D01*
X138910046Y-103833741D01*
X138904681Y-103829044D01*
X138888852Y-103806893D01*
X138866650Y-103770132D01*
X138840233Y-103722415D01*
X138811760Y-103667393D01*
X138731986Y-103508150D01*
X138658799Y-103654742D01*
X138649103Y-103674032D01*
X138622125Y-103726380D01*
X138598096Y-103771170D01*
X138579332Y-103804154D01*
X138568146Y-103821089D01*
X138567000Y-103822332D01*
X138538879Y-103837619D01*
X138503817Y-103839302D01*
X138472776Y-103826733D01*
X138470350Y-103823884D01*
X138458090Y-103803259D01*
X138438352Y-103765708D01*
X138412448Y-103713880D01*
X138381685Y-103650423D01*
X138347375Y-103577985D01*
X138310825Y-103499216D01*
X138290585Y-103455093D01*
X138253812Y-103374365D01*
X138225355Y-103310687D01*
X138204331Y-103261752D01*
X138189854Y-103225257D01*
X138181039Y-103198895D01*
X138177004Y-103180361D01*
X138176862Y-103167352D01*
X138179730Y-103157561D01*
X138194387Y-103136678D01*
X138220990Y-103116377D01*
X138221745Y-103116035D01*
X138241335Y-103109034D01*
X138258790Y-103108504D01*
X138275702Y-103116478D01*
G36*
X138275702Y-103116478D02*
G01*
X138293663Y-103134989D01*
X138314263Y-103166071D01*
X138339095Y-103211756D01*
X138369750Y-103274078D01*
X138407820Y-103355071D01*
X138422454Y-103386454D01*
X138452203Y-103449638D01*
X138478297Y-103504244D01*
X138499292Y-103547290D01*
X138513739Y-103575793D01*
X138520191Y-103586770D01*
X138521550Y-103586189D01*
X138531542Y-103572242D01*
X138548833Y-103542704D01*
X138571430Y-103501087D01*
X138597338Y-103450903D01*
X138613311Y-103419414D01*
X138642261Y-103364061D01*
X138664749Y-103325044D01*
X138682965Y-103299566D01*
X138699096Y-103284831D01*
X138715330Y-103278042D01*
X138733857Y-103276400D01*
X138744360Y-103276875D01*
X138760476Y-103281082D01*
X138775790Y-103291946D01*
X138792388Y-103312219D01*
X138812357Y-103344654D01*
X138837783Y-103392004D01*
X138870752Y-103457022D01*
X138880485Y-103476277D01*
X138904943Y-103522946D01*
X138925178Y-103559109D01*
X138939311Y-103581497D01*
X138945460Y-103586845D01*
X138946827Y-103583573D01*
X138956202Y-103562664D01*
X138973062Y-103525725D01*
X138995979Y-103475874D01*
X139023520Y-103416226D01*
X139054255Y-103349898D01*
X139080970Y-103292677D01*
X139110593Y-103230688D01*
X139133664Y-103184949D01*
X139151643Y-103152908D01*
X139165990Y-103132014D01*
X139178166Y-103119718D01*
X139189632Y-103113466D01*
X139199042Y-103110574D01*
X139224147Y-103110425D01*
X139251290Y-103125768D01*
X139252590Y-103126753D01*
X139274674Y-103149388D01*
X139285723Y-103171613D01*
X139285769Y-103172253D01*
X139281228Y-103189915D01*
X139268364Y-103224481D01*
X139248605Y-103272826D01*
X139223381Y-103331825D01*
X139194119Y-103398355D01*
X139162250Y-103469291D01*
X139129201Y-103541507D01*
X139096401Y-103611880D01*
X139065280Y-103677285D01*
X139037265Y-103734597D01*
X139013786Y-103780692D01*
X138996272Y-103812446D01*
X138986151Y-103826733D01*
X138951743Y-103840102D01*
X138910046Y-103833741D01*
X138904681Y-103829044D01*
X138888852Y-103806893D01*
X138866650Y-103770132D01*
X138840233Y-103722415D01*
X138811760Y-103667393D01*
X138731986Y-103508150D01*
X138658799Y-103654742D01*
X138649103Y-103674032D01*
X138622125Y-103726380D01*
X138598096Y-103771170D01*
X138579332Y-103804154D01*
X138568146Y-103821089D01*
X138567000Y-103822332D01*
X138538879Y-103837619D01*
X138503817Y-103839302D01*
X138472776Y-103826733D01*
X138470350Y-103823884D01*
X138458090Y-103803259D01*
X138438352Y-103765708D01*
X138412448Y-103713880D01*
X138381685Y-103650423D01*
X138347375Y-103577985D01*
X138310825Y-103499216D01*
X138290585Y-103455093D01*
X138253812Y-103374365D01*
X138225355Y-103310687D01*
X138204331Y-103261752D01*
X138189854Y-103225257D01*
X138181039Y-103198895D01*
X138177004Y-103180361D01*
X138176862Y-103167352D01*
X138179730Y-103157561D01*
X138194387Y-103136678D01*
X138220990Y-103116377D01*
X138221745Y-103116035D01*
X138241335Y-103109034D01*
X138258790Y-103108504D01*
X138275702Y-103116478D01*
G37*
X145826853Y-103107936D02*
X145893100Y-103113366D01*
X145948400Y-103122964D01*
X145999283Y-103137825D01*
X146070595Y-103170958D01*
X146121752Y-103213640D01*
X146152575Y-103265705D01*
X146162889Y-103326983D01*
X146161952Y-103358232D01*
X146156160Y-103383029D01*
X146141353Y-103404699D01*
X146113380Y-103432049D01*
X146105402Y-103439378D01*
X146081692Y-103460281D01*
X146059298Y-103477251D01*
X146035265Y-103491205D01*
X146006637Y-103503056D01*
X145970460Y-103513720D01*
X145923780Y-103524111D01*
X145863641Y-103535146D01*
X145787090Y-103547738D01*
X145691171Y-103562804D01*
X145672808Y-103565838D01*
X145610478Y-103579458D01*
X145565260Y-103595192D01*
X145538976Y-103612263D01*
X145533447Y-103629897D01*
X145536068Y-103634168D01*
X145554000Y-103649233D01*
X145582126Y-103665867D01*
X145594926Y-103671857D01*
X145616224Y-103679050D01*
X145642610Y-103683827D01*
X145678454Y-103686646D01*
X145728128Y-103687964D01*
X145796000Y-103688237D01*
X145813785Y-103688164D01*
X145881406Y-103687053D01*
X145946345Y-103684828D01*
X146001970Y-103681762D01*
X146041651Y-103678127D01*
X146077162Y-103674059D01*
X146106415Y-103673276D01*
X146125315Y-103677876D01*
X146140429Y-103688551D01*
X146144085Y-103692144D01*
X146160427Y-103723918D01*
X146159107Y-103759572D01*
X146140150Y-103790190D01*
X146119780Y-103801796D01*
X146083796Y-103814491D01*
X146041372Y-103824541D01*
X146037922Y-103825140D01*
X145995252Y-103830356D01*
X145937866Y-103834730D01*
X145872849Y-103837818D01*
X145807289Y-103839177D01*
X145791057Y-103839218D01*
X145692744Y-103836741D01*
X145612692Y-103828735D01*
X145547513Y-103814203D01*
X145493817Y-103792149D01*
X145448216Y-103761576D01*
X145407323Y-103721486D01*
X145387202Y-103695259D01*
X145375576Y-103665712D01*
X145372667Y-103625995D01*
X145372808Y-103614026D01*
X145376681Y-103581345D01*
X145389065Y-103554819D01*
X145414230Y-103523971D01*
X145435442Y-103501831D01*
X145461838Y-103479285D01*
X145491555Y-103460917D01*
X145527785Y-103445661D01*
X145573717Y-103432449D01*
X145632544Y-103420214D01*
X145707456Y-103407889D01*
X145801645Y-103394406D01*
X145846957Y-103387396D01*
X145914911Y-103372837D01*
X145964047Y-103356337D01*
X145993614Y-103338439D01*
X146002864Y-103319685D01*
X145991048Y-103300615D01*
X145957416Y-103281771D01*
X145954370Y-103280557D01*
X145908011Y-103268479D01*
X145845361Y-103260279D01*
X145771927Y-103256119D01*
X145693217Y-103256161D01*
X145614739Y-103260569D01*
X145542000Y-103269505D01*
X145538073Y-103270154D01*
X145489257Y-103277861D01*
X145457005Y-103281473D01*
X145436008Y-103280876D01*
X145420954Y-103275954D01*
X145406534Y-103266596D01*
X145405364Y-103265725D01*
X145380847Y-103235351D01*
X145376054Y-103199850D01*
X145391860Y-103165269D01*
X145396406Y-103160813D01*
X145426020Y-103145673D01*
X145473002Y-103132550D01*
X145533306Y-103121750D01*
X145602888Y-103113581D01*
X145677703Y-103108351D01*
X145753706Y-103106367D01*
X145826853Y-103107936D01*
G36*
X145826853Y-103107936D02*
G01*
X145893100Y-103113366D01*
X145948400Y-103122964D01*
X145999283Y-103137825D01*
X146070595Y-103170958D01*
X146121752Y-103213640D01*
X146152575Y-103265705D01*
X146162889Y-103326983D01*
X146161952Y-103358232D01*
X146156160Y-103383029D01*
X146141353Y-103404699D01*
X146113380Y-103432049D01*
X146105402Y-103439378D01*
X146081692Y-103460281D01*
X146059298Y-103477251D01*
X146035265Y-103491205D01*
X146006637Y-103503056D01*
X145970460Y-103513720D01*
X145923780Y-103524111D01*
X145863641Y-103535146D01*
X145787090Y-103547738D01*
X145691171Y-103562804D01*
X145672808Y-103565838D01*
X145610478Y-103579458D01*
X145565260Y-103595192D01*
X145538976Y-103612263D01*
X145533447Y-103629897D01*
X145536068Y-103634168D01*
X145554000Y-103649233D01*
X145582126Y-103665867D01*
X145594926Y-103671857D01*
X145616224Y-103679050D01*
X145642610Y-103683827D01*
X145678454Y-103686646D01*
X145728128Y-103687964D01*
X145796000Y-103688237D01*
X145813785Y-103688164D01*
X145881406Y-103687053D01*
X145946345Y-103684828D01*
X146001970Y-103681762D01*
X146041651Y-103678127D01*
X146077162Y-103674059D01*
X146106415Y-103673276D01*
X146125315Y-103677876D01*
X146140429Y-103688551D01*
X146144085Y-103692144D01*
X146160427Y-103723918D01*
X146159107Y-103759572D01*
X146140150Y-103790190D01*
X146119780Y-103801796D01*
X146083796Y-103814491D01*
X146041372Y-103824541D01*
X146037922Y-103825140D01*
X145995252Y-103830356D01*
X145937866Y-103834730D01*
X145872849Y-103837818D01*
X145807289Y-103839177D01*
X145791057Y-103839218D01*
X145692744Y-103836741D01*
X145612692Y-103828735D01*
X145547513Y-103814203D01*
X145493817Y-103792149D01*
X145448216Y-103761576D01*
X145407323Y-103721486D01*
X145387202Y-103695259D01*
X145375576Y-103665712D01*
X145372667Y-103625995D01*
X145372808Y-103614026D01*
X145376681Y-103581345D01*
X145389065Y-103554819D01*
X145414230Y-103523971D01*
X145435442Y-103501831D01*
X145461838Y-103479285D01*
X145491555Y-103460917D01*
X145527785Y-103445661D01*
X145573717Y-103432449D01*
X145632544Y-103420214D01*
X145707456Y-103407889D01*
X145801645Y-103394406D01*
X145846957Y-103387396D01*
X145914911Y-103372837D01*
X145964047Y-103356337D01*
X145993614Y-103338439D01*
X146002864Y-103319685D01*
X145991048Y-103300615D01*
X145957416Y-103281771D01*
X145954370Y-103280557D01*
X145908011Y-103268479D01*
X145845361Y-103260279D01*
X145771927Y-103256119D01*
X145693217Y-103256161D01*
X145614739Y-103260569D01*
X145542000Y-103269505D01*
X145538073Y-103270154D01*
X145489257Y-103277861D01*
X145457005Y-103281473D01*
X145436008Y-103280876D01*
X145420954Y-103275954D01*
X145406534Y-103266596D01*
X145405364Y-103265725D01*
X145380847Y-103235351D01*
X145376054Y-103199850D01*
X145391860Y-103165269D01*
X145396406Y-103160813D01*
X145426020Y-103145673D01*
X145473002Y-103132550D01*
X145533306Y-103121750D01*
X145602888Y-103113581D01*
X145677703Y-103108351D01*
X145753706Y-103106367D01*
X145826853Y-103107936D01*
G37*
X141974711Y-98800033D02*
X142070268Y-98817523D01*
X142234558Y-98862564D01*
X142388589Y-98925656D01*
X142534509Y-99007915D01*
X142674466Y-99110457D01*
X142810608Y-99234399D01*
X142854473Y-99279661D01*
X142966758Y-99411865D01*
X143059972Y-99549832D01*
X143136719Y-99697750D01*
X143199603Y-99859803D01*
X143203420Y-99871391D01*
X143253507Y-100057392D01*
X143286899Y-100253521D01*
X143303584Y-100455568D01*
X143303551Y-100659325D01*
X143286791Y-100860581D01*
X143253292Y-101055128D01*
X143203044Y-101238756D01*
X143159190Y-101356053D01*
X143081348Y-101518951D01*
X142987828Y-101672866D01*
X142880822Y-101814671D01*
X142762519Y-101941239D01*
X142635111Y-102049441D01*
X142557606Y-102102120D01*
X142430725Y-102171750D01*
X142293243Y-102230468D01*
X142151716Y-102275587D01*
X142012702Y-102304422D01*
X141998597Y-102306106D01*
X141955153Y-102309434D01*
X141897723Y-102312275D01*
X141832122Y-102314373D01*
X141764167Y-102315468D01*
X141637378Y-102313140D01*
X141489673Y-102300136D01*
X141351779Y-102275133D01*
X141218014Y-102237318D01*
X141194562Y-102228889D01*
X141146612Y-102209408D01*
X141090140Y-102184473D01*
X141028379Y-102155722D01*
X140964563Y-102124790D01*
X140901926Y-102093315D01*
X140843703Y-102062934D01*
X140793127Y-102035283D01*
X140753433Y-102011999D01*
X140727854Y-101994718D01*
X140719625Y-101985079D01*
X140721076Y-101981984D01*
X140732250Y-101962079D01*
X140753134Y-101926420D01*
X140782265Y-101877459D01*
X140818181Y-101817646D01*
X140859420Y-101749433D01*
X140904517Y-101675271D01*
X141085785Y-101378008D01*
X141132315Y-101422539D01*
X141223723Y-101500865D01*
X141337334Y-101575439D01*
X141455122Y-101629474D01*
X141575559Y-101662290D01*
X141697117Y-101673211D01*
X141738585Y-101671868D01*
X141856080Y-101653612D01*
X141966089Y-101614617D01*
X142067430Y-101555670D01*
X142158921Y-101477557D01*
X142239380Y-101381064D01*
X142307627Y-101266978D01*
X142323908Y-101232724D01*
X142369982Y-101109240D01*
X142405106Y-100970918D01*
X142429197Y-100821561D01*
X142442173Y-100664973D01*
X142443949Y-100504956D01*
X142434443Y-100345314D01*
X142413572Y-100189850D01*
X142381252Y-100042366D01*
X142337399Y-99906667D01*
X142299982Y-99820076D01*
X142235185Y-99706688D01*
X142159772Y-99613070D01*
X142073418Y-99538959D01*
X141975795Y-99484094D01*
X141866577Y-99448212D01*
X141745439Y-99431051D01*
X141676038Y-99429880D01*
X141553168Y-99444141D01*
X141437664Y-99479241D01*
X141330953Y-99534682D01*
X141234464Y-99609964D01*
X141218720Y-99624440D01*
X141188150Y-99650962D01*
X141165809Y-99668138D01*
X141155691Y-99672787D01*
X141153706Y-99670597D01*
X141139241Y-99651721D01*
X141115400Y-99618397D01*
X141084029Y-99573380D01*
X141046974Y-99519425D01*
X141006083Y-99459285D01*
X140963202Y-99395718D01*
X140920178Y-99331476D01*
X140878857Y-99269315D01*
X140841086Y-99211991D01*
X140808712Y-99162257D01*
X140783582Y-99122868D01*
X140767542Y-99096580D01*
X140762439Y-99086147D01*
X140767050Y-99081941D01*
X140786267Y-99076933D01*
X140795838Y-99074386D01*
X140823809Y-99063249D01*
X140865448Y-99044802D01*
X140916995Y-99020725D01*
X140974690Y-98992699D01*
X140985957Y-98987154D01*
X141163687Y-98907889D01*
X141333490Y-98848385D01*
X141497430Y-98808245D01*
X141657571Y-98787071D01*
X141815977Y-98784466D01*
X141974711Y-98800033D01*
G36*
X141974711Y-98800033D02*
G01*
X142070268Y-98817523D01*
X142234558Y-98862564D01*
X142388589Y-98925656D01*
X142534509Y-99007915D01*
X142674466Y-99110457D01*
X142810608Y-99234399D01*
X142854473Y-99279661D01*
X142966758Y-99411865D01*
X143059972Y-99549832D01*
X143136719Y-99697750D01*
X143199603Y-99859803D01*
X143203420Y-99871391D01*
X143253507Y-100057392D01*
X143286899Y-100253521D01*
X143303584Y-100455568D01*
X143303551Y-100659325D01*
X143286791Y-100860581D01*
X143253292Y-101055128D01*
X143203044Y-101238756D01*
X143159190Y-101356053D01*
X143081348Y-101518951D01*
X142987828Y-101672866D01*
X142880822Y-101814671D01*
X142762519Y-101941239D01*
X142635111Y-102049441D01*
X142557606Y-102102120D01*
X142430725Y-102171750D01*
X142293243Y-102230468D01*
X142151716Y-102275587D01*
X142012702Y-102304422D01*
X141998597Y-102306106D01*
X141955153Y-102309434D01*
X141897723Y-102312275D01*
X141832122Y-102314373D01*
X141764167Y-102315468D01*
X141637378Y-102313140D01*
X141489673Y-102300136D01*
X141351779Y-102275133D01*
X141218014Y-102237318D01*
X141194562Y-102228889D01*
X141146612Y-102209408D01*
X141090140Y-102184473D01*
X141028379Y-102155722D01*
X140964563Y-102124790D01*
X140901926Y-102093315D01*
X140843703Y-102062934D01*
X140793127Y-102035283D01*
X140753433Y-102011999D01*
X140727854Y-101994718D01*
X140719625Y-101985079D01*
X140721076Y-101981984D01*
X140732250Y-101962079D01*
X140753134Y-101926420D01*
X140782265Y-101877459D01*
X140818181Y-101817646D01*
X140859420Y-101749433D01*
X140904517Y-101675271D01*
X141085785Y-101378008D01*
X141132315Y-101422539D01*
X141223723Y-101500865D01*
X141337334Y-101575439D01*
X141455122Y-101629474D01*
X141575559Y-101662290D01*
X141697117Y-101673211D01*
X141738585Y-101671868D01*
X141856080Y-101653612D01*
X141966089Y-101614617D01*
X142067430Y-101555670D01*
X142158921Y-101477557D01*
X142239380Y-101381064D01*
X142307627Y-101266978D01*
X142323908Y-101232724D01*
X142369982Y-101109240D01*
X142405106Y-100970918D01*
X142429197Y-100821561D01*
X142442173Y-100664973D01*
X142443949Y-100504956D01*
X142434443Y-100345314D01*
X142413572Y-100189850D01*
X142381252Y-100042366D01*
X142337399Y-99906667D01*
X142299982Y-99820076D01*
X142235185Y-99706688D01*
X142159772Y-99613070D01*
X142073418Y-99538959D01*
X141975795Y-99484094D01*
X141866577Y-99448212D01*
X141745439Y-99431051D01*
X141676038Y-99429880D01*
X141553168Y-99444141D01*
X141437664Y-99479241D01*
X141330953Y-99534682D01*
X141234464Y-99609964D01*
X141218720Y-99624440D01*
X141188150Y-99650962D01*
X141165809Y-99668138D01*
X141155691Y-99672787D01*
X141153706Y-99670597D01*
X141139241Y-99651721D01*
X141115400Y-99618397D01*
X141084029Y-99573380D01*
X141046974Y-99519425D01*
X141006083Y-99459285D01*
X140963202Y-99395718D01*
X140920178Y-99331476D01*
X140878857Y-99269315D01*
X140841086Y-99211991D01*
X140808712Y-99162257D01*
X140783582Y-99122868D01*
X140767542Y-99096580D01*
X140762439Y-99086147D01*
X140767050Y-99081941D01*
X140786267Y-99076933D01*
X140795838Y-99074386D01*
X140823809Y-99063249D01*
X140865448Y-99044802D01*
X140916995Y-99020725D01*
X140974690Y-98992699D01*
X140985957Y-98987154D01*
X141163687Y-98907889D01*
X141333490Y-98848385D01*
X141497430Y-98808245D01*
X141657571Y-98787071D01*
X141815977Y-98784466D01*
X141974711Y-98800033D01*
G37*
X138171994Y-101080711D02*
X138171268Y-101158158D01*
X138162689Y-101309594D01*
X138143833Y-101446283D01*
X138113837Y-101572276D01*
X138071836Y-101691625D01*
X138016969Y-101808381D01*
X137950167Y-101919179D01*
X137859363Y-102032739D01*
X137755708Y-102128211D01*
X137639887Y-102205073D01*
X137512586Y-102262797D01*
X137374489Y-102300858D01*
X137336793Y-102306666D01*
X137257752Y-102312396D01*
X137169629Y-102312583D01*
X137080236Y-102307539D01*
X136997384Y-102297578D01*
X136928887Y-102283012D01*
X136898035Y-102273364D01*
X136820730Y-102243123D01*
X136743679Y-102205617D01*
X136674200Y-102164614D01*
X136619615Y-102123879D01*
X136596916Y-102104505D01*
X136574201Y-102086662D01*
X136562779Y-102079778D01*
X136561537Y-102081424D01*
X136558728Y-102099205D01*
X136556776Y-102132370D01*
X136556045Y-102175733D01*
X136556045Y-102271689D01*
X135697896Y-102271689D01*
X135732161Y-102210974D01*
X135737355Y-102201868D01*
X135745715Y-102187249D01*
X135753288Y-102173173D01*
X135760112Y-102158540D01*
X135766227Y-102142249D01*
X135771673Y-102123198D01*
X135776487Y-102100286D01*
X135780708Y-102072413D01*
X135784377Y-102038478D01*
X135787531Y-101997379D01*
X135790211Y-101948015D01*
X135792454Y-101889286D01*
X135794299Y-101820090D01*
X135795787Y-101739326D01*
X135796955Y-101645894D01*
X135797844Y-101538692D01*
X135798491Y-101416620D01*
X135798936Y-101278576D01*
X135799218Y-101123459D01*
X135799375Y-100950168D01*
X135799448Y-100757603D01*
X135799474Y-100544662D01*
X135799485Y-100408530D01*
X136601200Y-100408530D01*
X136601200Y-101558721D01*
X136671756Y-101605089D01*
X136712417Y-101628791D01*
X136766546Y-101654639D01*
X136815689Y-101672829D01*
X136879165Y-101688551D01*
X136975331Y-101699541D01*
X137059900Y-101691365D01*
X137133219Y-101663805D01*
X137195637Y-101616642D01*
X137247502Y-101549658D01*
X137289160Y-101462633D01*
X137320962Y-101355350D01*
X137323545Y-101343009D01*
X137332000Y-101281772D01*
X137337663Y-101204692D01*
X137340576Y-101117002D01*
X137340783Y-101023934D01*
X137338330Y-100930720D01*
X137333261Y-100842594D01*
X137325619Y-100764788D01*
X137315448Y-100702533D01*
X137314167Y-100696666D01*
X137285126Y-100586121D01*
X137250610Y-100495575D01*
X137209456Y-100422953D01*
X137160499Y-100366181D01*
X137102574Y-100323184D01*
X137070620Y-100307615D01*
X136997784Y-100288722D01*
X136916443Y-100285465D01*
X136831319Y-100297389D01*
X136747133Y-100324040D01*
X136668608Y-100364962D01*
X136601200Y-100408530D01*
X135799485Y-100408530D01*
X135799493Y-100310245D01*
X135799689Y-98625378D01*
X136705017Y-98625378D01*
X136680585Y-98662067D01*
X136674318Y-98671647D01*
X136648208Y-98717981D01*
X136630469Y-98765102D01*
X136618908Y-98820251D01*
X136611331Y-98890667D01*
X136610839Y-98897650D01*
X136609062Y-98935641D01*
X136607444Y-98989576D01*
X136605999Y-99056703D01*
X136604740Y-99134271D01*
X136603680Y-99219528D01*
X136602829Y-99309724D01*
X136602203Y-99402107D01*
X136601812Y-99493925D01*
X136601670Y-99582427D01*
X136601790Y-99664862D01*
X136602183Y-99738479D01*
X136602862Y-99800526D01*
X136603841Y-99848251D01*
X136605132Y-99878904D01*
X136606747Y-99889733D01*
X136614957Y-99885333D01*
X136636647Y-99870362D01*
X136666014Y-99848448D01*
X136714879Y-99814236D01*
X136803125Y-99767714D01*
X136901916Y-99734046D01*
X137014510Y-99712231D01*
X137144164Y-99701265D01*
X137236670Y-99700219D01*
X137358011Y-99710014D01*
X137468099Y-99734174D01*
X137571389Y-99773785D01*
X137672338Y-99829932D01*
X137717503Y-99860883D01*
X137822911Y-99952115D01*
X137914538Y-100061106D01*
X137992332Y-100187726D01*
X138056241Y-100331845D01*
X138106214Y-100493332D01*
X138142198Y-100672059D01*
X138164143Y-100867895D01*
X138169900Y-101023934D01*
X138171994Y-101080711D01*
G36*
X138171994Y-101080711D02*
G01*
X138171268Y-101158158D01*
X138162689Y-101309594D01*
X138143833Y-101446283D01*
X138113837Y-101572276D01*
X138071836Y-101691625D01*
X138016969Y-101808381D01*
X137950167Y-101919179D01*
X137859363Y-102032739D01*
X137755708Y-102128211D01*
X137639887Y-102205073D01*
X137512586Y-102262797D01*
X137374489Y-102300858D01*
X137336793Y-102306666D01*
X137257752Y-102312396D01*
X137169629Y-102312583D01*
X137080236Y-102307539D01*
X136997384Y-102297578D01*
X136928887Y-102283012D01*
X136898035Y-102273364D01*
X136820730Y-102243123D01*
X136743679Y-102205617D01*
X136674200Y-102164614D01*
X136619615Y-102123879D01*
X136596916Y-102104505D01*
X136574201Y-102086662D01*
X136562779Y-102079778D01*
X136561537Y-102081424D01*
X136558728Y-102099205D01*
X136556776Y-102132370D01*
X136556045Y-102175733D01*
X136556045Y-102271689D01*
X135697896Y-102271689D01*
X135732161Y-102210974D01*
X135737355Y-102201868D01*
X135745715Y-102187249D01*
X135753288Y-102173173D01*
X135760112Y-102158540D01*
X135766227Y-102142249D01*
X135771673Y-102123198D01*
X135776487Y-102100286D01*
X135780708Y-102072413D01*
X135784377Y-102038478D01*
X135787531Y-101997379D01*
X135790211Y-101948015D01*
X135792454Y-101889286D01*
X135794299Y-101820090D01*
X135795787Y-101739326D01*
X135796955Y-101645894D01*
X135797844Y-101538692D01*
X135798491Y-101416620D01*
X135798936Y-101278576D01*
X135799218Y-101123459D01*
X135799375Y-100950168D01*
X135799448Y-100757603D01*
X135799474Y-100544662D01*
X135799485Y-100408530D01*
X136601200Y-100408530D01*
X136601200Y-101558721D01*
X136671756Y-101605089D01*
X136712417Y-101628791D01*
X136766546Y-101654639D01*
X136815689Y-101672829D01*
X136879165Y-101688551D01*
X136975331Y-101699541D01*
X137059900Y-101691365D01*
X137133219Y-101663805D01*
X137195637Y-101616642D01*
X137247502Y-101549658D01*
X137289160Y-101462633D01*
X137320962Y-101355350D01*
X137323545Y-101343009D01*
X137332000Y-101281772D01*
X137337663Y-101204692D01*
X137340576Y-101117002D01*
X137340783Y-101023934D01*
X137338330Y-100930720D01*
X137333261Y-100842594D01*
X137325619Y-100764788D01*
X137315448Y-100702533D01*
X137314167Y-100696666D01*
X137285126Y-100586121D01*
X137250610Y-100495575D01*
X137209456Y-100422953D01*
X137160499Y-100366181D01*
X137102574Y-100323184D01*
X137070620Y-100307615D01*
X136997784Y-100288722D01*
X136916443Y-100285465D01*
X136831319Y-100297389D01*
X136747133Y-100324040D01*
X136668608Y-100364962D01*
X136601200Y-100408530D01*
X135799485Y-100408530D01*
X135799493Y-100310245D01*
X135799689Y-98625378D01*
X136705017Y-98625378D01*
X136680585Y-98662067D01*
X136674318Y-98671647D01*
X136648208Y-98717981D01*
X136630469Y-98765102D01*
X136618908Y-98820251D01*
X136611331Y-98890667D01*
X136610839Y-98897650D01*
X136609062Y-98935641D01*
X136607444Y-98989576D01*
X136605999Y-99056703D01*
X136604740Y-99134271D01*
X136603680Y-99219528D01*
X136602829Y-99309724D01*
X136602203Y-99402107D01*
X136601812Y-99493925D01*
X136601670Y-99582427D01*
X136601790Y-99664862D01*
X136602183Y-99738479D01*
X136602862Y-99800526D01*
X136603841Y-99848251D01*
X136605132Y-99878904D01*
X136606747Y-99889733D01*
X136614957Y-99885333D01*
X136636647Y-99870362D01*
X136666014Y-99848448D01*
X136714879Y-99814236D01*
X136803125Y-99767714D01*
X136901916Y-99734046D01*
X137014510Y-99712231D01*
X137144164Y-99701265D01*
X137236670Y-99700219D01*
X137358011Y-99710014D01*
X137468099Y-99734174D01*
X137571389Y-99773785D01*
X137672338Y-99829932D01*
X137717503Y-99860883D01*
X137822911Y-99952115D01*
X137914538Y-100061106D01*
X137992332Y-100187726D01*
X138056241Y-100331845D01*
X138106214Y-100493332D01*
X138142198Y-100672059D01*
X138164143Y-100867895D01*
X138169900Y-101023934D01*
X138171994Y-101080711D01*
G37*
X140713755Y-101481467D02*
X140713261Y-101515363D01*
X140709632Y-101590202D01*
X140702022Y-101652401D01*
X140689688Y-101708984D01*
X140645313Y-101835076D01*
X140582400Y-101949679D01*
X140502238Y-102050568D01*
X140405740Y-102136924D01*
X140293822Y-102207932D01*
X140167397Y-102262776D01*
X140027378Y-102300638D01*
X139991149Y-102306351D01*
X139912155Y-102312313D01*
X139823841Y-102312646D01*
X139734075Y-102307659D01*
X139650722Y-102297666D01*
X139581651Y-102282978D01*
X139495187Y-102252749D01*
X139385286Y-102198057D01*
X139287956Y-102130543D01*
X139225867Y-102079556D01*
X139222605Y-102175622D01*
X139219343Y-102271689D01*
X138796450Y-102271689D01*
X138785543Y-102271686D01*
X138691056Y-102271380D01*
X138604331Y-102270616D01*
X138527837Y-102269451D01*
X138464043Y-102267942D01*
X138415418Y-102266147D01*
X138384433Y-102264121D01*
X138373556Y-102261922D01*
X138373578Y-102261463D01*
X138380614Y-102245910D01*
X138396434Y-102223071D01*
X138400734Y-102217638D01*
X138411777Y-102203606D01*
X138421311Y-102190186D01*
X138429461Y-102175722D01*
X138436352Y-102158556D01*
X138442111Y-102137034D01*
X138446862Y-102109498D01*
X138450731Y-102074292D01*
X138453844Y-102029760D01*
X138456325Y-101974246D01*
X138458300Y-101906093D01*
X138459894Y-101823645D01*
X138461234Y-101725246D01*
X138462444Y-101609239D01*
X138463649Y-101473968D01*
X138464595Y-101362586D01*
X139265378Y-101362586D01*
X139265378Y-101558462D01*
X139310048Y-101614973D01*
X139322785Y-101630212D01*
X139369604Y-101672844D01*
X139430255Y-101708672D01*
X139440897Y-101713850D01*
X139479676Y-101730745D01*
X139514692Y-101740909D01*
X139554722Y-101746325D01*
X139608541Y-101748978D01*
X139626648Y-101749383D01*
X139702011Y-101746540D01*
X139762743Y-101734620D01*
X139814452Y-101712037D01*
X139862746Y-101677211D01*
X139867803Y-101672798D01*
X139916272Y-101617160D01*
X139944459Y-101553333D01*
X139953752Y-101478282D01*
X139946520Y-101406693D01*
X139921796Y-101343645D01*
X139877249Y-101285758D01*
X139822319Y-101238808D01*
X139749894Y-101198961D01*
X139663340Y-101171263D01*
X139560670Y-101155096D01*
X139439894Y-101149842D01*
X139431007Y-101149857D01*
X139375660Y-101150655D01*
X139328736Y-101152488D01*
X139294953Y-101155111D01*
X139279028Y-101158274D01*
X139274943Y-101164741D01*
X139270572Y-101186875D01*
X139267604Y-101225988D01*
X139265914Y-101283939D01*
X139265378Y-101362586D01*
X138464595Y-101362586D01*
X138464975Y-101317778D01*
X138466228Y-101175012D01*
X138467651Y-101029942D01*
X138469176Y-100904027D01*
X138470933Y-100795436D01*
X138473051Y-100702334D01*
X138475660Y-100622891D01*
X138478890Y-100555273D01*
X138482869Y-100497649D01*
X138487728Y-100448185D01*
X138493597Y-100405050D01*
X138500604Y-100366410D01*
X138508880Y-100330434D01*
X138518554Y-100295289D01*
X138529756Y-100259142D01*
X138542616Y-100220161D01*
X138558090Y-100177091D01*
X138600994Y-100084871D01*
X138654735Y-100005099D01*
X138723576Y-99930965D01*
X138801185Y-99867405D01*
X138905761Y-99805725D01*
X139025244Y-99758202D01*
X139160508Y-99724567D01*
X139312426Y-99704552D01*
X139481872Y-99697889D01*
X139539890Y-99698287D01*
X139605398Y-99700335D01*
X139666693Y-99704704D01*
X139728097Y-99712035D01*
X139793932Y-99722969D01*
X139868520Y-99738147D01*
X139956184Y-99758209D01*
X140061245Y-99783797D01*
X140089806Y-99790820D01*
X140165054Y-99808776D01*
X140235388Y-99824820D01*
X140296567Y-99838028D01*
X140344354Y-99847474D01*
X140374511Y-99852231D01*
X140402783Y-99855910D01*
X140429060Y-99861187D01*
X140439059Y-99865942D01*
X140435952Y-99874781D01*
X140425194Y-99902072D01*
X140407864Y-99944906D01*
X140385126Y-100000425D01*
X140358147Y-100065772D01*
X140328090Y-100138089D01*
X140321493Y-100153879D01*
X140282907Y-100244484D01*
X140251768Y-100314217D01*
X140227917Y-100363405D01*
X140211198Y-100392374D01*
X140201454Y-100401452D01*
X140193766Y-100399405D01*
X140167415Y-100389760D01*
X140128982Y-100374190D01*
X140083822Y-100354815D01*
X139989293Y-100316814D01*
X139852480Y-100275780D01*
X139711289Y-100250612D01*
X139673314Y-100246611D01*
X139570059Y-100244447D01*
X139482952Y-100257622D01*
X139411129Y-100286756D01*
X139353731Y-100332466D01*
X139309896Y-100395372D01*
X139278762Y-100476092D01*
X139259470Y-100575245D01*
X139252050Y-100634224D01*
X139413936Y-100627445D01*
X139540495Y-100625813D01*
X139691951Y-100632194D01*
X139840396Y-100646777D01*
X139976578Y-100668882D01*
X140041245Y-100683821D01*
X140173490Y-100726741D01*
X140295762Y-100783340D01*
X140405685Y-100852017D01*
X140500883Y-100931170D01*
X140578980Y-101019196D01*
X140637599Y-101114493D01*
X140661595Y-101166864D01*
X140687232Y-101237590D01*
X140703478Y-101308812D01*
X140711822Y-101387712D01*
X140713690Y-101478282D01*
X140713755Y-101481467D01*
G36*
X140713755Y-101481467D02*
G01*
X140713261Y-101515363D01*
X140709632Y-101590202D01*
X140702022Y-101652401D01*
X140689688Y-101708984D01*
X140645313Y-101835076D01*
X140582400Y-101949679D01*
X140502238Y-102050568D01*
X140405740Y-102136924D01*
X140293822Y-102207932D01*
X140167397Y-102262776D01*
X140027378Y-102300638D01*
X139991149Y-102306351D01*
X139912155Y-102312313D01*
X139823841Y-102312646D01*
X139734075Y-102307659D01*
X139650722Y-102297666D01*
X139581651Y-102282978D01*
X139495187Y-102252749D01*
X139385286Y-102198057D01*
X139287956Y-102130543D01*
X139225867Y-102079556D01*
X139222605Y-102175622D01*
X139219343Y-102271689D01*
X138796450Y-102271689D01*
X138785543Y-102271686D01*
X138691056Y-102271380D01*
X138604331Y-102270616D01*
X138527837Y-102269451D01*
X138464043Y-102267942D01*
X138415418Y-102266147D01*
X138384433Y-102264121D01*
X138373556Y-102261922D01*
X138373578Y-102261463D01*
X138380614Y-102245910D01*
X138396434Y-102223071D01*
X138400734Y-102217638D01*
X138411777Y-102203606D01*
X138421311Y-102190186D01*
X138429461Y-102175722D01*
X138436352Y-102158556D01*
X138442111Y-102137034D01*
X138446862Y-102109498D01*
X138450731Y-102074292D01*
X138453844Y-102029760D01*
X138456325Y-101974246D01*
X138458300Y-101906093D01*
X138459894Y-101823645D01*
X138461234Y-101725246D01*
X138462444Y-101609239D01*
X138463649Y-101473968D01*
X138464595Y-101362586D01*
X139265378Y-101362586D01*
X139265378Y-101558462D01*
X139310048Y-101614973D01*
X139322785Y-101630212D01*
X139369604Y-101672844D01*
X139430255Y-101708672D01*
X139440897Y-101713850D01*
X139479676Y-101730745D01*
X139514692Y-101740909D01*
X139554722Y-101746325D01*
X139608541Y-101748978D01*
X139626648Y-101749383D01*
X139702011Y-101746540D01*
X139762743Y-101734620D01*
X139814452Y-101712037D01*
X139862746Y-101677211D01*
X139867803Y-101672798D01*
X139916272Y-101617160D01*
X139944459Y-101553333D01*
X139953752Y-101478282D01*
X139946520Y-101406693D01*
X139921796Y-101343645D01*
X139877249Y-101285758D01*
X139822319Y-101238808D01*
X139749894Y-101198961D01*
X139663340Y-101171263D01*
X139560670Y-101155096D01*
X139439894Y-101149842D01*
X139431007Y-101149857D01*
X139375660Y-101150655D01*
X139328736Y-101152488D01*
X139294953Y-101155111D01*
X139279028Y-101158274D01*
X139274943Y-101164741D01*
X139270572Y-101186875D01*
X139267604Y-101225988D01*
X139265914Y-101283939D01*
X139265378Y-101362586D01*
X138464595Y-101362586D01*
X138464975Y-101317778D01*
X138466228Y-101175012D01*
X138467651Y-101029942D01*
X138469176Y-100904027D01*
X138470933Y-100795436D01*
X138473051Y-100702334D01*
X138475660Y-100622891D01*
X138478890Y-100555273D01*
X138482869Y-100497649D01*
X138487728Y-100448185D01*
X138493597Y-100405050D01*
X138500604Y-100366410D01*
X138508880Y-100330434D01*
X138518554Y-100295289D01*
X138529756Y-100259142D01*
X138542616Y-100220161D01*
X138558090Y-100177091D01*
X138600994Y-100084871D01*
X138654735Y-100005099D01*
X138723576Y-99930965D01*
X138801185Y-99867405D01*
X138905761Y-99805725D01*
X139025244Y-99758202D01*
X139160508Y-99724567D01*
X139312426Y-99704552D01*
X139481872Y-99697889D01*
X139539890Y-99698287D01*
X139605398Y-99700335D01*
X139666693Y-99704704D01*
X139728097Y-99712035D01*
X139793932Y-99722969D01*
X139868520Y-99738147D01*
X139956184Y-99758209D01*
X140061245Y-99783797D01*
X140089806Y-99790820D01*
X140165054Y-99808776D01*
X140235388Y-99824820D01*
X140296567Y-99838028D01*
X140344354Y-99847474D01*
X140374511Y-99852231D01*
X140402783Y-99855910D01*
X140429060Y-99861187D01*
X140439059Y-99865942D01*
X140435952Y-99874781D01*
X140425194Y-99902072D01*
X140407864Y-99944906D01*
X140385126Y-100000425D01*
X140358147Y-100065772D01*
X140328090Y-100138089D01*
X140321493Y-100153879D01*
X140282907Y-100244484D01*
X140251768Y-100314217D01*
X140227917Y-100363405D01*
X140211198Y-100392374D01*
X140201454Y-100401452D01*
X140193766Y-100399405D01*
X140167415Y-100389760D01*
X140128982Y-100374190D01*
X140083822Y-100354815D01*
X139989293Y-100316814D01*
X139852480Y-100275780D01*
X139711289Y-100250612D01*
X139673314Y-100246611D01*
X139570059Y-100244447D01*
X139482952Y-100257622D01*
X139411129Y-100286756D01*
X139353731Y-100332466D01*
X139309896Y-100395372D01*
X139278762Y-100476092D01*
X139259470Y-100575245D01*
X139252050Y-100634224D01*
X139413936Y-100627445D01*
X139540495Y-100625813D01*
X139691951Y-100632194D01*
X139840396Y-100646777D01*
X139976578Y-100668882D01*
X140041245Y-100683821D01*
X140173490Y-100726741D01*
X140295762Y-100783340D01*
X140405685Y-100852017D01*
X140500883Y-100931170D01*
X140578980Y-101019196D01*
X140637599Y-101114493D01*
X140661595Y-101166864D01*
X140687232Y-101237590D01*
X140703478Y-101308812D01*
X140711822Y-101387712D01*
X140713690Y-101478282D01*
X140713755Y-101481467D01*
G37*
X148261614Y-98949792D02*
X148262059Y-99081011D01*
X148262362Y-99228216D01*
X148262548Y-99392349D01*
X148262642Y-99574352D01*
X148262671Y-99775165D01*
X148262661Y-99995732D01*
X148262636Y-100236992D01*
X148262622Y-100499889D01*
X148262622Y-100542040D01*
X148262646Y-100802668D01*
X148262685Y-101041796D01*
X148262708Y-101260360D01*
X148262687Y-101459295D01*
X148262593Y-101639535D01*
X148262395Y-101802015D01*
X148262063Y-101947670D01*
X148261569Y-102077434D01*
X148260883Y-102192243D01*
X148259976Y-102293030D01*
X148258817Y-102380730D01*
X148257378Y-102456279D01*
X148255629Y-102520611D01*
X148253540Y-102574661D01*
X148251083Y-102619363D01*
X148248227Y-102655652D01*
X148244943Y-102684463D01*
X148241202Y-102706731D01*
X148236974Y-102723390D01*
X148232229Y-102735375D01*
X148226939Y-102743621D01*
X148221073Y-102749062D01*
X148214602Y-102752634D01*
X148207497Y-102755270D01*
X148199728Y-102757906D01*
X148191266Y-102761477D01*
X148186908Y-102763145D01*
X148178395Y-102765111D01*
X148165694Y-102766911D01*
X148147885Y-102768555D01*
X148124049Y-102770047D01*
X148093266Y-102771397D01*
X148054617Y-102772611D01*
X148007182Y-102773697D01*
X147950043Y-102774661D01*
X147882279Y-102775511D01*
X147802971Y-102776253D01*
X147711199Y-102776897D01*
X147606044Y-102777447D01*
X147486587Y-102777913D01*
X147351908Y-102778300D01*
X147201088Y-102778616D01*
X147033206Y-102778869D01*
X146847345Y-102779066D01*
X146642583Y-102779213D01*
X146418002Y-102779318D01*
X146172682Y-102779389D01*
X145905704Y-102779432D01*
X145867321Y-102779437D01*
X145601922Y-102779480D01*
X145358050Y-102779525D01*
X145134783Y-102779548D01*
X144931196Y-102779524D01*
X144746367Y-102779430D01*
X144579373Y-102779243D01*
X144429290Y-102778939D01*
X144295196Y-102778494D01*
X144176166Y-102777885D01*
X144071279Y-102777089D01*
X143979610Y-102776080D01*
X143900237Y-102774837D01*
X143832237Y-102773335D01*
X143774686Y-102771551D01*
X143726662Y-102769461D01*
X143687240Y-102767042D01*
X143655499Y-102764270D01*
X143630514Y-102761121D01*
X143611364Y-102757572D01*
X143597123Y-102753598D01*
X143586871Y-102749178D01*
X143579682Y-102744286D01*
X143574635Y-102738900D01*
X143570805Y-102732996D01*
X143567271Y-102726549D01*
X143563108Y-102719537D01*
X143562025Y-102717687D01*
X143559813Y-102712180D01*
X143557786Y-102703868D01*
X143555938Y-102691809D01*
X143554261Y-102675063D01*
X143552745Y-102652687D01*
X143551383Y-102623740D01*
X143550167Y-102587280D01*
X143549089Y-102542367D01*
X143548140Y-102488057D01*
X143547312Y-102423410D01*
X143546597Y-102347484D01*
X143545987Y-102259338D01*
X143545942Y-102250493D01*
X143837378Y-102250493D01*
X143841260Y-102251765D01*
X143864520Y-102253791D01*
X143906874Y-102255626D01*
X143966132Y-102257227D01*
X144040107Y-102258549D01*
X144126610Y-102259548D01*
X144223452Y-102260180D01*
X144328445Y-102260400D01*
X145026651Y-102260400D01*
X146181090Y-102260400D01*
X146180456Y-102184200D01*
X146181574Y-102142160D01*
X146187304Y-102106334D01*
X146199890Y-102068772D01*
X146221568Y-102020577D01*
X146224789Y-102013897D01*
X146250188Y-101964359D01*
X146276996Y-101916369D01*
X146299917Y-101879466D01*
X146304485Y-101872834D01*
X146326516Y-101841593D01*
X146358693Y-101796654D01*
X146399457Y-101740147D01*
X146447245Y-101674204D01*
X146500498Y-101600957D01*
X146557655Y-101522536D01*
X146617155Y-101441072D01*
X146677437Y-101358698D01*
X146736940Y-101277544D01*
X146794105Y-101199742D01*
X146847370Y-101127423D01*
X146895174Y-101062718D01*
X146935957Y-101007759D01*
X146968158Y-100964676D01*
X146990216Y-100935602D01*
X147000571Y-100922667D01*
X147005044Y-100918351D01*
X147009236Y-100916312D01*
X147012643Y-100918926D01*
X147015325Y-100927986D01*
X147017341Y-100945285D01*
X147018748Y-100972614D01*
X147019605Y-101011765D01*
X147019970Y-101064533D01*
X147019903Y-101132707D01*
X147019460Y-101218082D01*
X147018702Y-101322449D01*
X147017685Y-101447600D01*
X147017308Y-101492300D01*
X147016169Y-101613395D01*
X147014972Y-101714688D01*
X147013636Y-101798262D01*
X147012077Y-101866204D01*
X147010215Y-101920599D01*
X147007966Y-101963532D01*
X147005248Y-101997089D01*
X147001979Y-102023355D01*
X146998078Y-102044416D01*
X146993461Y-102062357D01*
X146985192Y-102088770D01*
X146961583Y-102150772D01*
X146935685Y-102203573D01*
X146910535Y-102240645D01*
X146909339Y-102242075D01*
X146907168Y-102246424D01*
X146909328Y-102250026D01*
X146917644Y-102252951D01*
X146933940Y-102255269D01*
X146960041Y-102257051D01*
X146997771Y-102258367D01*
X147048956Y-102259286D01*
X147115420Y-102259878D01*
X147198987Y-102260215D01*
X147301483Y-102260365D01*
X147424732Y-102260400D01*
X147956296Y-102260400D01*
X147917523Y-102202783D01*
X147911432Y-102193893D01*
X147900976Y-102179069D01*
X147891579Y-102165422D01*
X147883183Y-102151765D01*
X147875733Y-102136911D01*
X147869173Y-102119670D01*
X147863446Y-102098855D01*
X147858495Y-102073280D01*
X147854266Y-102041755D01*
X147850701Y-102003093D01*
X147847744Y-101956107D01*
X147845340Y-101899608D01*
X147843431Y-101832409D01*
X147841962Y-101753322D01*
X147840876Y-101661160D01*
X147840118Y-101554734D01*
X147839630Y-101432857D01*
X147839358Y-101294341D01*
X147839243Y-101137999D01*
X147839231Y-100962642D01*
X147839265Y-100767082D01*
X147839289Y-100550133D01*
X147839280Y-100427513D01*
X147839243Y-100222447D01*
X147839227Y-100038116D01*
X147839288Y-99873334D01*
X147839484Y-99726916D01*
X147839870Y-99597674D01*
X147840505Y-99484422D01*
X147841444Y-99385975D01*
X147842745Y-99301144D01*
X147844464Y-99228744D01*
X147846659Y-99167589D01*
X147849385Y-99116492D01*
X147852701Y-99074267D01*
X147856662Y-99039727D01*
X147861325Y-99011686D01*
X147866747Y-98988958D01*
X147872986Y-98970356D01*
X147880097Y-98954693D01*
X147888138Y-98940784D01*
X147897166Y-98927441D01*
X147907236Y-98913479D01*
X147918407Y-98897711D01*
X147958197Y-98839867D01*
X146898314Y-98839867D01*
X146936311Y-98902966D01*
X146950993Y-98928005D01*
X146965531Y-98955586D01*
X146977627Y-98983700D01*
X146987532Y-99014551D01*
X146995494Y-99050344D01*
X147001761Y-99093283D01*
X147006582Y-99145574D01*
X147010206Y-99209419D01*
X147012881Y-99287025D01*
X147014857Y-99380594D01*
X147016382Y-99492333D01*
X147017704Y-99624445D01*
X147018613Y-99744434D01*
X147019020Y-99861063D01*
X147018767Y-99956531D01*
X147017857Y-100030556D01*
X147016293Y-100082855D01*
X147014079Y-100113149D01*
X147011220Y-100121156D01*
X147008161Y-100117858D01*
X146990006Y-100096408D01*
X146960275Y-100059889D01*
X146920639Y-100010442D01*
X146872771Y-99950207D01*
X146818343Y-99881327D01*
X146759027Y-99805943D01*
X146696495Y-99726196D01*
X146632421Y-99644228D01*
X146568475Y-99562180D01*
X146506331Y-99482194D01*
X146447661Y-99406411D01*
X146394137Y-99336973D01*
X146347430Y-99276021D01*
X146309214Y-99225696D01*
X146281161Y-99188140D01*
X146264943Y-99165495D01*
X146219635Y-99093212D01*
X146179661Y-99013463D01*
X146158130Y-98945188D01*
X146154827Y-98887844D01*
X146160116Y-98839867D01*
X145028356Y-98840117D01*
X145067867Y-98870722D01*
X145077248Y-98878089D01*
X145140183Y-98932438D01*
X145208997Y-99000259D01*
X145285596Y-99083516D01*
X145371888Y-99184178D01*
X145389052Y-99204847D01*
X145429833Y-99254409D01*
X145479588Y-99315326D01*
X145536955Y-99385898D01*
X145600569Y-99464424D01*
X145669069Y-99549204D01*
X145741090Y-99638537D01*
X145815270Y-99730722D01*
X145830517Y-99749702D01*
X145890246Y-99824060D01*
X145964653Y-99916848D01*
X146037131Y-100007388D01*
X146106314Y-100093978D01*
X146170841Y-100174918D01*
X146229347Y-100248506D01*
X146280470Y-100313044D01*
X146322847Y-100366829D01*
X146355115Y-100408162D01*
X146375910Y-100435342D01*
X146383869Y-100446668D01*
X146382111Y-100450771D01*
X146369230Y-100471334D01*
X146344885Y-100507561D01*
X146310247Y-100557824D01*
X146266486Y-100620492D01*
X146214775Y-100693936D01*
X146156284Y-100776527D01*
X146092184Y-100866636D01*
X146023646Y-100962631D01*
X145951843Y-101062885D01*
X145877944Y-101165768D01*
X145803121Y-101269650D01*
X145728545Y-101372901D01*
X145655387Y-101473892D01*
X145584819Y-101570994D01*
X145518011Y-101662577D01*
X145456135Y-101747011D01*
X145400361Y-101822667D01*
X145351862Y-101887916D01*
X145311807Y-101941128D01*
X145281369Y-101980673D01*
X145260944Y-102006026D01*
X145214899Y-102060295D01*
X145164612Y-102116775D01*
X145117815Y-102166669D01*
X145026651Y-102260400D01*
X144328445Y-102260400D01*
X144397356Y-102260349D01*
X144495607Y-102260091D01*
X144585030Y-102259637D01*
X144663333Y-102259010D01*
X144728223Y-102258235D01*
X144777411Y-102257335D01*
X144808604Y-102256334D01*
X144819511Y-102255257D01*
X144818322Y-102252037D01*
X144808176Y-102234452D01*
X144791040Y-102208158D01*
X144782540Y-102195691D01*
X144773329Y-102181622D01*
X144765233Y-102167351D01*
X144758185Y-102151479D01*
X144752117Y-102132609D01*
X144746961Y-102109341D01*
X144742651Y-102080278D01*
X144739119Y-102044021D01*
X144736297Y-101999170D01*
X144734118Y-101944328D01*
X144732514Y-101878097D01*
X144731419Y-101799077D01*
X144730765Y-101705871D01*
X144730484Y-101597079D01*
X144730509Y-101471303D01*
X144730772Y-101327145D01*
X144731206Y-101163207D01*
X144731745Y-100978089D01*
X144732279Y-100799232D01*
X144732805Y-100640374D01*
X144733350Y-100501316D01*
X144733945Y-100380665D01*
X144734619Y-100277028D01*
X144735403Y-100189011D01*
X144736326Y-100115223D01*
X144737419Y-100054269D01*
X144738712Y-100004757D01*
X144740235Y-99965293D01*
X144742019Y-99934484D01*
X144744092Y-99910938D01*
X144746486Y-99893260D01*
X144749230Y-99880059D01*
X144752356Y-99869940D01*
X144755892Y-99861511D01*
X144759791Y-99853375D01*
X144779438Y-99816544D01*
X144798225Y-99786391D01*
X144799272Y-99784908D01*
X144813602Y-99762659D01*
X144819511Y-99749702D01*
X144818504Y-99749249D01*
X144801305Y-99747803D01*
X144764656Y-99746480D01*
X144710962Y-99745316D01*
X144642630Y-99744347D01*
X144562064Y-99743611D01*
X144471670Y-99743142D01*
X144373853Y-99742978D01*
X143928195Y-99742978D01*
X143925120Y-100919845D01*
X143922045Y-102096711D01*
X143895407Y-102155622D01*
X143883485Y-102180183D01*
X143866246Y-102210434D01*
X143853074Y-102227560D01*
X143845076Y-102235591D01*
X143837378Y-102250493D01*
X143545942Y-102250493D01*
X143545474Y-102158029D01*
X143545050Y-102042617D01*
X143544706Y-101912160D01*
X143544434Y-101765716D01*
X143544227Y-101602344D01*
X143544076Y-101421101D01*
X143543972Y-101221048D01*
X143543908Y-101001241D01*
X143543876Y-100760739D01*
X143543867Y-100498602D01*
X143543867Y-98307031D01*
X143582249Y-98268649D01*
X143609355Y-98244911D01*
X143636253Y-98233111D01*
X143672560Y-98230267D01*
X143724489Y-98230267D01*
X143724489Y-98318206D01*
X143726427Y-98368102D01*
X143745199Y-98478523D01*
X143782217Y-98579987D01*
X143835369Y-98671152D01*
X143902546Y-98750673D01*
X143981638Y-98817205D01*
X144070534Y-98869406D01*
X144167125Y-98905930D01*
X144269300Y-98925434D01*
X144374950Y-98926573D01*
X144481964Y-98908005D01*
X144588232Y-98868384D01*
X144685219Y-98810516D01*
X144770293Y-98735684D01*
X144839015Y-98647615D01*
X144889918Y-98548616D01*
X144921535Y-98440993D01*
X144932400Y-98327054D01*
X144932400Y-98230267D01*
X146552753Y-98230267D01*
X146763897Y-98230280D01*
X146968020Y-98230330D01*
X147151686Y-98230430D01*
X147315991Y-98230592D01*
X147462029Y-98230829D01*
X147590894Y-98231153D01*
X147703683Y-98231575D01*
X147801488Y-98232109D01*
X147885404Y-98232767D01*
X147956527Y-98233561D01*
X148015950Y-98234504D01*
X148064768Y-98235608D01*
X148104077Y-98236884D01*
X148134969Y-98238347D01*
X148158541Y-98240007D01*
X148175886Y-98241878D01*
X148188099Y-98243972D01*
X148196275Y-98246300D01*
X148201508Y-98248876D01*
X148207504Y-98252445D01*
X148214279Y-98255978D01*
X148220478Y-98259488D01*
X148226126Y-98263918D01*
X148231247Y-98270208D01*
X148235869Y-98279301D01*
X148240015Y-98292139D01*
X148243713Y-98309662D01*
X148246987Y-98332813D01*
X148249863Y-98362534D01*
X148252367Y-98399765D01*
X148254524Y-98445449D01*
X148256360Y-98500527D01*
X148257900Y-98565941D01*
X148259170Y-98642633D01*
X148260195Y-98731544D01*
X148261001Y-98833617D01*
X148261034Y-98839867D01*
X148261614Y-98949792D01*
G36*
X148261614Y-98949792D02*
G01*
X148262059Y-99081011D01*
X148262362Y-99228216D01*
X148262548Y-99392349D01*
X148262642Y-99574352D01*
X148262671Y-99775165D01*
X148262661Y-99995732D01*
X148262636Y-100236992D01*
X148262622Y-100499889D01*
X148262622Y-100542040D01*
X148262646Y-100802668D01*
X148262685Y-101041796D01*
X148262708Y-101260360D01*
X148262687Y-101459295D01*
X148262593Y-101639535D01*
X148262395Y-101802015D01*
X148262063Y-101947670D01*
X148261569Y-102077434D01*
X148260883Y-102192243D01*
X148259976Y-102293030D01*
X148258817Y-102380730D01*
X148257378Y-102456279D01*
X148255629Y-102520611D01*
X148253540Y-102574661D01*
X148251083Y-102619363D01*
X148248227Y-102655652D01*
X148244943Y-102684463D01*
X148241202Y-102706731D01*
X148236974Y-102723390D01*
X148232229Y-102735375D01*
X148226939Y-102743621D01*
X148221073Y-102749062D01*
X148214602Y-102752634D01*
X148207497Y-102755270D01*
X148199728Y-102757906D01*
X148191266Y-102761477D01*
X148186908Y-102763145D01*
X148178395Y-102765111D01*
X148165694Y-102766911D01*
X148147885Y-102768555D01*
X148124049Y-102770047D01*
X148093266Y-102771397D01*
X148054617Y-102772611D01*
X148007182Y-102773697D01*
X147950043Y-102774661D01*
X147882279Y-102775511D01*
X147802971Y-102776253D01*
X147711199Y-102776897D01*
X147606044Y-102777447D01*
X147486587Y-102777913D01*
X147351908Y-102778300D01*
X147201088Y-102778616D01*
X147033206Y-102778869D01*
X146847345Y-102779066D01*
X146642583Y-102779213D01*
X146418002Y-102779318D01*
X146172682Y-102779389D01*
X145905704Y-102779432D01*
X145867321Y-102779437D01*
X145601922Y-102779480D01*
X145358050Y-102779525D01*
X145134783Y-102779548D01*
X144931196Y-102779524D01*
X144746367Y-102779430D01*
X144579373Y-102779243D01*
X144429290Y-102778939D01*
X144295196Y-102778494D01*
X144176166Y-102777885D01*
X144071279Y-102777089D01*
X143979610Y-102776080D01*
X143900237Y-102774837D01*
X143832237Y-102773335D01*
X143774686Y-102771551D01*
X143726662Y-102769461D01*
X143687240Y-102767042D01*
X143655499Y-102764270D01*
X143630514Y-102761121D01*
X143611364Y-102757572D01*
X143597123Y-102753598D01*
X143586871Y-102749178D01*
X143579682Y-102744286D01*
X143574635Y-102738900D01*
X143570805Y-102732996D01*
X143567271Y-102726549D01*
X143563108Y-102719537D01*
X143562025Y-102717687D01*
X143559813Y-102712180D01*
X143557786Y-102703868D01*
X143555938Y-102691809D01*
X143554261Y-102675063D01*
X143552745Y-102652687D01*
X143551383Y-102623740D01*
X143550167Y-102587280D01*
X143549089Y-102542367D01*
X143548140Y-102488057D01*
X143547312Y-102423410D01*
X143546597Y-102347484D01*
X143545987Y-102259338D01*
X143545942Y-102250493D01*
X143837378Y-102250493D01*
X143841260Y-102251765D01*
X143864520Y-102253791D01*
X143906874Y-102255626D01*
X143966132Y-102257227D01*
X144040107Y-102258549D01*
X144126610Y-102259548D01*
X144223452Y-102260180D01*
X144328445Y-102260400D01*
X145026651Y-102260400D01*
X146181090Y-102260400D01*
X146180456Y-102184200D01*
X146181574Y-102142160D01*
X146187304Y-102106334D01*
X146199890Y-102068772D01*
X146221568Y-102020577D01*
X146224789Y-102013897D01*
X146250188Y-101964359D01*
X146276996Y-101916369D01*
X146299917Y-101879466D01*
X146304485Y-101872834D01*
X146326516Y-101841593D01*
X146358693Y-101796654D01*
X146399457Y-101740147D01*
X146447245Y-101674204D01*
X146500498Y-101600957D01*
X146557655Y-101522536D01*
X146617155Y-101441072D01*
X146677437Y-101358698D01*
X146736940Y-101277544D01*
X146794105Y-101199742D01*
X146847370Y-101127423D01*
X146895174Y-101062718D01*
X146935957Y-101007759D01*
X146968158Y-100964676D01*
X146990216Y-100935602D01*
X147000571Y-100922667D01*
X147005044Y-100918351D01*
X147009236Y-100916312D01*
X147012643Y-100918926D01*
X147015325Y-100927986D01*
X147017341Y-100945285D01*
X147018748Y-100972614D01*
X147019605Y-101011765D01*
X147019970Y-101064533D01*
X147019903Y-101132707D01*
X147019460Y-101218082D01*
X147018702Y-101322449D01*
X147017685Y-101447600D01*
X147017308Y-101492300D01*
X147016169Y-101613395D01*
X147014972Y-101714688D01*
X147013636Y-101798262D01*
X147012077Y-101866204D01*
X147010215Y-101920599D01*
X147007966Y-101963532D01*
X147005248Y-101997089D01*
X147001979Y-102023355D01*
X146998078Y-102044416D01*
X146993461Y-102062357D01*
X146985192Y-102088770D01*
X146961583Y-102150772D01*
X146935685Y-102203573D01*
X146910535Y-102240645D01*
X146909339Y-102242075D01*
X146907168Y-102246424D01*
X146909328Y-102250026D01*
X146917644Y-102252951D01*
X146933940Y-102255269D01*
X146960041Y-102257051D01*
X146997771Y-102258367D01*
X147048956Y-102259286D01*
X147115420Y-102259878D01*
X147198987Y-102260215D01*
X147301483Y-102260365D01*
X147424732Y-102260400D01*
X147956296Y-102260400D01*
X147917523Y-102202783D01*
X147911432Y-102193893D01*
X147900976Y-102179069D01*
X147891579Y-102165422D01*
X147883183Y-102151765D01*
X147875733Y-102136911D01*
X147869173Y-102119670D01*
X147863446Y-102098855D01*
X147858495Y-102073280D01*
X147854266Y-102041755D01*
X147850701Y-102003093D01*
X147847744Y-101956107D01*
X147845340Y-101899608D01*
X147843431Y-101832409D01*
X147841962Y-101753322D01*
X147840876Y-101661160D01*
X147840118Y-101554734D01*
X147839630Y-101432857D01*
X147839358Y-101294341D01*
X147839243Y-101137999D01*
X147839231Y-100962642D01*
X147839265Y-100767082D01*
X147839289Y-100550133D01*
X147839280Y-100427513D01*
X147839243Y-100222447D01*
X147839227Y-100038116D01*
X147839288Y-99873334D01*
X147839484Y-99726916D01*
X147839870Y-99597674D01*
X147840505Y-99484422D01*
X147841444Y-99385975D01*
X147842745Y-99301144D01*
X147844464Y-99228744D01*
X147846659Y-99167589D01*
X147849385Y-99116492D01*
X147852701Y-99074267D01*
X147856662Y-99039727D01*
X147861325Y-99011686D01*
X147866747Y-98988958D01*
X147872986Y-98970356D01*
X147880097Y-98954693D01*
X147888138Y-98940784D01*
X147897166Y-98927441D01*
X147907236Y-98913479D01*
X147918407Y-98897711D01*
X147958197Y-98839867D01*
X146898314Y-98839867D01*
X146936311Y-98902966D01*
X146950993Y-98928005D01*
X146965531Y-98955586D01*
X146977627Y-98983700D01*
X146987532Y-99014551D01*
X146995494Y-99050344D01*
X147001761Y-99093283D01*
X147006582Y-99145574D01*
X147010206Y-99209419D01*
X147012881Y-99287025D01*
X147014857Y-99380594D01*
X147016382Y-99492333D01*
X147017704Y-99624445D01*
X147018613Y-99744434D01*
X147019020Y-99861063D01*
X147018767Y-99956531D01*
X147017857Y-100030556D01*
X147016293Y-100082855D01*
X147014079Y-100113149D01*
X147011220Y-100121156D01*
X147008161Y-100117858D01*
X146990006Y-100096408D01*
X146960275Y-100059889D01*
X146920639Y-100010442D01*
X146872771Y-99950207D01*
X146818343Y-99881327D01*
X146759027Y-99805943D01*
X146696495Y-99726196D01*
X146632421Y-99644228D01*
X146568475Y-99562180D01*
X146506331Y-99482194D01*
X146447661Y-99406411D01*
X146394137Y-99336973D01*
X146347430Y-99276021D01*
X146309214Y-99225696D01*
X146281161Y-99188140D01*
X146264943Y-99165495D01*
X146219635Y-99093212D01*
X146179661Y-99013463D01*
X146158130Y-98945188D01*
X146154827Y-98887844D01*
X146160116Y-98839867D01*
X145028356Y-98840117D01*
X145067867Y-98870722D01*
X145077248Y-98878089D01*
X145140183Y-98932438D01*
X145208997Y-99000259D01*
X145285596Y-99083516D01*
X145371888Y-99184178D01*
X145389052Y-99204847D01*
X145429833Y-99254409D01*
X145479588Y-99315326D01*
X145536955Y-99385898D01*
X145600569Y-99464424D01*
X145669069Y-99549204D01*
X145741090Y-99638537D01*
X145815270Y-99730722D01*
X145830517Y-99749702D01*
X145890246Y-99824060D01*
X145964653Y-99916848D01*
X146037131Y-100007388D01*
X146106314Y-100093978D01*
X146170841Y-100174918D01*
X146229347Y-100248506D01*
X146280470Y-100313044D01*
X146322847Y-100366829D01*
X146355115Y-100408162D01*
X146375910Y-100435342D01*
X146383869Y-100446668D01*
X146382111Y-100450771D01*
X146369230Y-100471334D01*
X146344885Y-100507561D01*
X146310247Y-100557824D01*
X146266486Y-100620492D01*
X146214775Y-100693936D01*
X146156284Y-100776527D01*
X146092184Y-100866636D01*
X146023646Y-100962631D01*
X145951843Y-101062885D01*
X145877944Y-101165768D01*
X145803121Y-101269650D01*
X145728545Y-101372901D01*
X145655387Y-101473892D01*
X145584819Y-101570994D01*
X145518011Y-101662577D01*
X145456135Y-101747011D01*
X145400361Y-101822667D01*
X145351862Y-101887916D01*
X145311807Y-101941128D01*
X145281369Y-101980673D01*
X145260944Y-102006026D01*
X145214899Y-102060295D01*
X145164612Y-102116775D01*
X145117815Y-102166669D01*
X145026651Y-102260400D01*
X144328445Y-102260400D01*
X144397356Y-102260349D01*
X144495607Y-102260091D01*
X144585030Y-102259637D01*
X144663333Y-102259010D01*
X144728223Y-102258235D01*
X144777411Y-102257335D01*
X144808604Y-102256334D01*
X144819511Y-102255257D01*
X144818322Y-102252037D01*
X144808176Y-102234452D01*
X144791040Y-102208158D01*
X144782540Y-102195691D01*
X144773329Y-102181622D01*
X144765233Y-102167351D01*
X144758185Y-102151479D01*
X144752117Y-102132609D01*
X144746961Y-102109341D01*
X144742651Y-102080278D01*
X144739119Y-102044021D01*
X144736297Y-101999170D01*
X144734118Y-101944328D01*
X144732514Y-101878097D01*
X144731419Y-101799077D01*
X144730765Y-101705871D01*
X144730484Y-101597079D01*
X144730509Y-101471303D01*
X144730772Y-101327145D01*
X144731206Y-101163207D01*
X144731745Y-100978089D01*
X144732279Y-100799232D01*
X144732805Y-100640374D01*
X144733350Y-100501316D01*
X144733945Y-100380665D01*
X144734619Y-100277028D01*
X144735403Y-100189011D01*
X144736326Y-100115223D01*
X144737419Y-100054269D01*
X144738712Y-100004757D01*
X144740235Y-99965293D01*
X144742019Y-99934484D01*
X144744092Y-99910938D01*
X144746486Y-99893260D01*
X144749230Y-99880059D01*
X144752356Y-99869940D01*
X144755892Y-99861511D01*
X144759791Y-99853375D01*
X144779438Y-99816544D01*
X144798225Y-99786391D01*
X144799272Y-99784908D01*
X144813602Y-99762659D01*
X144819511Y-99749702D01*
X144818504Y-99749249D01*
X144801305Y-99747803D01*
X144764656Y-99746480D01*
X144710962Y-99745316D01*
X144642630Y-99744347D01*
X144562064Y-99743611D01*
X144471670Y-99743142D01*
X144373853Y-99742978D01*
X143928195Y-99742978D01*
X143925120Y-100919845D01*
X143922045Y-102096711D01*
X143895407Y-102155622D01*
X143883485Y-102180183D01*
X143866246Y-102210434D01*
X143853074Y-102227560D01*
X143845076Y-102235591D01*
X143837378Y-102250493D01*
X143545942Y-102250493D01*
X143545474Y-102158029D01*
X143545050Y-102042617D01*
X143544706Y-101912160D01*
X143544434Y-101765716D01*
X143544227Y-101602344D01*
X143544076Y-101421101D01*
X143543972Y-101221048D01*
X143543908Y-101001241D01*
X143543876Y-100760739D01*
X143543867Y-100498602D01*
X143543867Y-98307031D01*
X143582249Y-98268649D01*
X143609355Y-98244911D01*
X143636253Y-98233111D01*
X143672560Y-98230267D01*
X143724489Y-98230267D01*
X143724489Y-98318206D01*
X143726427Y-98368102D01*
X143745199Y-98478523D01*
X143782217Y-98579987D01*
X143835369Y-98671152D01*
X143902546Y-98750673D01*
X143981638Y-98817205D01*
X144070534Y-98869406D01*
X144167125Y-98905930D01*
X144269300Y-98925434D01*
X144374950Y-98926573D01*
X144481964Y-98908005D01*
X144588232Y-98868384D01*
X144685219Y-98810516D01*
X144770293Y-98735684D01*
X144839015Y-98647615D01*
X144889918Y-98548616D01*
X144921535Y-98440993D01*
X144932400Y-98327054D01*
X144932400Y-98230267D01*
X146552753Y-98230267D01*
X146763897Y-98230280D01*
X146968020Y-98230330D01*
X147151686Y-98230430D01*
X147315991Y-98230592D01*
X147462029Y-98230829D01*
X147590894Y-98231153D01*
X147703683Y-98231575D01*
X147801488Y-98232109D01*
X147885404Y-98232767D01*
X147956527Y-98233561D01*
X148015950Y-98234504D01*
X148064768Y-98235608D01*
X148104077Y-98236884D01*
X148134969Y-98238347D01*
X148158541Y-98240007D01*
X148175886Y-98241878D01*
X148188099Y-98243972D01*
X148196275Y-98246300D01*
X148201508Y-98248876D01*
X148207504Y-98252445D01*
X148214279Y-98255978D01*
X148220478Y-98259488D01*
X148226126Y-98263918D01*
X148231247Y-98270208D01*
X148235869Y-98279301D01*
X148240015Y-98292139D01*
X148243713Y-98309662D01*
X148246987Y-98332813D01*
X148249863Y-98362534D01*
X148252367Y-98399765D01*
X148254524Y-98445449D01*
X148256360Y-98500527D01*
X148257900Y-98565941D01*
X148259170Y-98642633D01*
X148260195Y-98731544D01*
X148261001Y-98833617D01*
X148261034Y-98839867D01*
X148261614Y-98949792D01*
G37*
%TD*%
M02*
