%TF.GenerationSoftware,KiCad,Pcbnew,9.0.0*%
%TF.CreationDate,2025-05-25T15:05:46+08:00*%
%TF.ProjectId,LED_Torch,4c45445f-546f-4726-9368-2e6b69636164,1*%
%TF.SameCoordinates,Original*%
%TF.FileFunction,Legend,Top*%
%TF.FilePolarity,Positive*%
%FSLAX46Y46*%
G04 Gerber Fmt 4.6, Leading zero omitted, Abs format (unit mm)*
G04 Created by KiCad (PCBNEW 9.0.0) date 2025-05-25 15:05:46*
%MOMM*%
%LPD*%
G01*
G04 APERTURE LIST*
%ADD10C,0.100000*%
%ADD11C,0.150000*%
%ADD12C,0.120000*%
G04 APERTURE END LIST*
D10*
X100125884Y-97789466D02*
X100887789Y-97789466D01*
X100125884Y-105663466D02*
X100887789Y-105663466D01*
X100506836Y-106044419D02*
X100506836Y-105282514D01*
D11*
X108545333Y-104340819D02*
X108212000Y-103864628D01*
X107973905Y-104340819D02*
X107973905Y-103340819D01*
X107973905Y-103340819D02*
X108354857Y-103340819D01*
X108354857Y-103340819D02*
X108450095Y-103388438D01*
X108450095Y-103388438D02*
X108497714Y-103436057D01*
X108497714Y-103436057D02*
X108545333Y-103531295D01*
X108545333Y-103531295D02*
X108545333Y-103674152D01*
X108545333Y-103674152D02*
X108497714Y-103769390D01*
X108497714Y-103769390D02*
X108450095Y-103817009D01*
X108450095Y-103817009D02*
X108354857Y-103864628D01*
X108354857Y-103864628D02*
X107973905Y-103864628D01*
X109497714Y-104340819D02*
X108926286Y-104340819D01*
X109212000Y-104340819D02*
X109212000Y-103340819D01*
X109212000Y-103340819D02*
X109116762Y-103483676D01*
X109116762Y-103483676D02*
X109021524Y-103578914D01*
X109021524Y-103578914D02*
X108926286Y-103626533D01*
X102131905Y-97990819D02*
X102131905Y-96990819D01*
X102131905Y-96990819D02*
X102370000Y-96990819D01*
X102370000Y-96990819D02*
X102512857Y-97038438D01*
X102512857Y-97038438D02*
X102608095Y-97133676D01*
X102608095Y-97133676D02*
X102655714Y-97228914D01*
X102655714Y-97228914D02*
X102703333Y-97419390D01*
X102703333Y-97419390D02*
X102703333Y-97562247D01*
X102703333Y-97562247D02*
X102655714Y-97752723D01*
X102655714Y-97752723D02*
X102608095Y-97847961D01*
X102608095Y-97847961D02*
X102512857Y-97943200D01*
X102512857Y-97943200D02*
X102370000Y-97990819D01*
X102370000Y-97990819D02*
X102131905Y-97990819D01*
X103655714Y-97990819D02*
X103084286Y-97990819D01*
X103370000Y-97990819D02*
X103370000Y-96990819D01*
X103370000Y-96990819D02*
X103274762Y-97133676D01*
X103274762Y-97133676D02*
X103179524Y-97228914D01*
X103179524Y-97228914D02*
X103084286Y-97276533D01*
X96824819Y-102137857D02*
X96824819Y-102614047D01*
X96824819Y-102614047D02*
X95824819Y-102614047D01*
X96301009Y-101804523D02*
X96301009Y-101471190D01*
X96824819Y-101328333D02*
X96824819Y-101804523D01*
X96824819Y-101804523D02*
X95824819Y-101804523D01*
X95824819Y-101804523D02*
X95824819Y-101328333D01*
X96824819Y-100899761D02*
X95824819Y-100899761D01*
X95824819Y-100899761D02*
X95824819Y-100661666D01*
X95824819Y-100661666D02*
X95872438Y-100518809D01*
X95872438Y-100518809D02*
X95967676Y-100423571D01*
X95967676Y-100423571D02*
X96062914Y-100375952D01*
X96062914Y-100375952D02*
X96253390Y-100328333D01*
X96253390Y-100328333D02*
X96396247Y-100328333D01*
X96396247Y-100328333D02*
X96586723Y-100375952D01*
X96586723Y-100375952D02*
X96681961Y-100423571D01*
X96681961Y-100423571D02*
X96777200Y-100518809D01*
X96777200Y-100518809D02*
X96824819Y-100661666D01*
X96824819Y-100661666D02*
X96824819Y-100899761D01*
X117916667Y-97607200D02*
X118059524Y-97654819D01*
X118059524Y-97654819D02*
X118297619Y-97654819D01*
X118297619Y-97654819D02*
X118392857Y-97607200D01*
X118392857Y-97607200D02*
X118440476Y-97559580D01*
X118440476Y-97559580D02*
X118488095Y-97464342D01*
X118488095Y-97464342D02*
X118488095Y-97369104D01*
X118488095Y-97369104D02*
X118440476Y-97273866D01*
X118440476Y-97273866D02*
X118392857Y-97226247D01*
X118392857Y-97226247D02*
X118297619Y-97178628D01*
X118297619Y-97178628D02*
X118107143Y-97131009D01*
X118107143Y-97131009D02*
X118011905Y-97083390D01*
X118011905Y-97083390D02*
X117964286Y-97035771D01*
X117964286Y-97035771D02*
X117916667Y-96940533D01*
X117916667Y-96940533D02*
X117916667Y-96845295D01*
X117916667Y-96845295D02*
X117964286Y-96750057D01*
X117964286Y-96750057D02*
X118011905Y-96702438D01*
X118011905Y-96702438D02*
X118107143Y-96654819D01*
X118107143Y-96654819D02*
X118345238Y-96654819D01*
X118345238Y-96654819D02*
X118488095Y-96702438D01*
X118821429Y-96654819D02*
X119059524Y-97654819D01*
X119059524Y-97654819D02*
X119250000Y-96940533D01*
X119250000Y-96940533D02*
X119440476Y-97654819D01*
X119440476Y-97654819D02*
X119678572Y-96654819D01*
X120583333Y-97654819D02*
X120011905Y-97654819D01*
X120297619Y-97654819D02*
X120297619Y-96654819D01*
X120297619Y-96654819D02*
X120202381Y-96797676D01*
X120202381Y-96797676D02*
X120107143Y-96892914D01*
X120107143Y-96892914D02*
X120011905Y-96940533D01*
X140534285Y-93811009D02*
X140677142Y-93858628D01*
X140677142Y-93858628D02*
X140724761Y-93906247D01*
X140724761Y-93906247D02*
X140772380Y-94001485D01*
X140772380Y-94001485D02*
X140772380Y-94144342D01*
X140772380Y-94144342D02*
X140724761Y-94239580D01*
X140724761Y-94239580D02*
X140677142Y-94287200D01*
X140677142Y-94287200D02*
X140581904Y-94334819D01*
X140581904Y-94334819D02*
X140200952Y-94334819D01*
X140200952Y-94334819D02*
X140200952Y-93334819D01*
X140200952Y-93334819D02*
X140534285Y-93334819D01*
X140534285Y-93334819D02*
X140629523Y-93382438D01*
X140629523Y-93382438D02*
X140677142Y-93430057D01*
X140677142Y-93430057D02*
X140724761Y-93525295D01*
X140724761Y-93525295D02*
X140724761Y-93620533D01*
X140724761Y-93620533D02*
X140677142Y-93715771D01*
X140677142Y-93715771D02*
X140629523Y-93763390D01*
X140629523Y-93763390D02*
X140534285Y-93811009D01*
X140534285Y-93811009D02*
X140200952Y-93811009D01*
X141058095Y-93334819D02*
X141629523Y-93334819D01*
X141343809Y-94334819D02*
X141343809Y-93334819D01*
X142486666Y-94334819D02*
X141915238Y-94334819D01*
X142200952Y-94334819D02*
X142200952Y-93334819D01*
X142200952Y-93334819D02*
X142105714Y-93477676D01*
X142105714Y-93477676D02*
X142010476Y-93572914D01*
X142010476Y-93572914D02*
X141915238Y-93620533D01*
X138367618Y-110829009D02*
X138510475Y-110876628D01*
X138510475Y-110876628D02*
X138558094Y-110924247D01*
X138558094Y-110924247D02*
X138605713Y-111019485D01*
X138605713Y-111019485D02*
X138605713Y-111162342D01*
X138605713Y-111162342D02*
X138558094Y-111257580D01*
X138558094Y-111257580D02*
X138510475Y-111305200D01*
X138510475Y-111305200D02*
X138415237Y-111352819D01*
X138415237Y-111352819D02*
X138034285Y-111352819D01*
X138034285Y-111352819D02*
X138034285Y-110352819D01*
X138034285Y-110352819D02*
X138367618Y-110352819D01*
X138367618Y-110352819D02*
X138462856Y-110400438D01*
X138462856Y-110400438D02*
X138510475Y-110448057D01*
X138510475Y-110448057D02*
X138558094Y-110543295D01*
X138558094Y-110543295D02*
X138558094Y-110638533D01*
X138558094Y-110638533D02*
X138510475Y-110733771D01*
X138510475Y-110733771D02*
X138462856Y-110781390D01*
X138462856Y-110781390D02*
X138367618Y-110829009D01*
X138367618Y-110829009D02*
X138034285Y-110829009D01*
X139462856Y-111352819D02*
X139462856Y-110829009D01*
X139462856Y-110829009D02*
X139415237Y-110733771D01*
X139415237Y-110733771D02*
X139319999Y-110686152D01*
X139319999Y-110686152D02*
X139129523Y-110686152D01*
X139129523Y-110686152D02*
X139034285Y-110733771D01*
X139462856Y-111305200D02*
X139367618Y-111352819D01*
X139367618Y-111352819D02*
X139129523Y-111352819D01*
X139129523Y-111352819D02*
X139034285Y-111305200D01*
X139034285Y-111305200D02*
X138986666Y-111209961D01*
X138986666Y-111209961D02*
X138986666Y-111114723D01*
X138986666Y-111114723D02*
X139034285Y-111019485D01*
X139034285Y-111019485D02*
X139129523Y-110971866D01*
X139129523Y-110971866D02*
X139367618Y-110971866D01*
X139367618Y-110971866D02*
X139462856Y-110924247D01*
X139796190Y-110686152D02*
X140177142Y-110686152D01*
X139939047Y-110352819D02*
X139939047Y-111209961D01*
X139939047Y-111209961D02*
X139986666Y-111305200D01*
X139986666Y-111305200D02*
X140081904Y-111352819D01*
X140081904Y-111352819D02*
X140177142Y-111352819D01*
X141224762Y-110448057D02*
X141272381Y-110400438D01*
X141272381Y-110400438D02*
X141367619Y-110352819D01*
X141367619Y-110352819D02*
X141605714Y-110352819D01*
X141605714Y-110352819D02*
X141700952Y-110400438D01*
X141700952Y-110400438D02*
X141748571Y-110448057D01*
X141748571Y-110448057D02*
X141796190Y-110543295D01*
X141796190Y-110543295D02*
X141796190Y-110638533D01*
X141796190Y-110638533D02*
X141748571Y-110781390D01*
X141748571Y-110781390D02*
X141177143Y-111352819D01*
X141177143Y-111352819D02*
X141796190Y-111352819D01*
X142415238Y-110352819D02*
X142510476Y-110352819D01*
X142510476Y-110352819D02*
X142605714Y-110400438D01*
X142605714Y-110400438D02*
X142653333Y-110448057D01*
X142653333Y-110448057D02*
X142700952Y-110543295D01*
X142700952Y-110543295D02*
X142748571Y-110733771D01*
X142748571Y-110733771D02*
X142748571Y-110971866D01*
X142748571Y-110971866D02*
X142700952Y-111162342D01*
X142700952Y-111162342D02*
X142653333Y-111257580D01*
X142653333Y-111257580D02*
X142605714Y-111305200D01*
X142605714Y-111305200D02*
X142510476Y-111352819D01*
X142510476Y-111352819D02*
X142415238Y-111352819D01*
X142415238Y-111352819D02*
X142320000Y-111305200D01*
X142320000Y-111305200D02*
X142272381Y-111257580D01*
X142272381Y-111257580D02*
X142224762Y-111162342D01*
X142224762Y-111162342D02*
X142177143Y-110971866D01*
X142177143Y-110971866D02*
X142177143Y-110733771D01*
X142177143Y-110733771D02*
X142224762Y-110543295D01*
X142224762Y-110543295D02*
X142272381Y-110448057D01*
X142272381Y-110448057D02*
X142320000Y-110400438D01*
X142320000Y-110400438D02*
X142415238Y-110352819D01*
X143081905Y-110352819D02*
X143700952Y-110352819D01*
X143700952Y-110352819D02*
X143367619Y-110733771D01*
X143367619Y-110733771D02*
X143510476Y-110733771D01*
X143510476Y-110733771D02*
X143605714Y-110781390D01*
X143605714Y-110781390D02*
X143653333Y-110829009D01*
X143653333Y-110829009D02*
X143700952Y-110924247D01*
X143700952Y-110924247D02*
X143700952Y-111162342D01*
X143700952Y-111162342D02*
X143653333Y-111257580D01*
X143653333Y-111257580D02*
X143605714Y-111305200D01*
X143605714Y-111305200D02*
X143510476Y-111352819D01*
X143510476Y-111352819D02*
X143224762Y-111352819D01*
X143224762Y-111352819D02*
X143129524Y-111305200D01*
X143129524Y-111305200D02*
X143081905Y-111257580D01*
X144081905Y-110448057D02*
X144129524Y-110400438D01*
X144129524Y-110400438D02*
X144224762Y-110352819D01*
X144224762Y-110352819D02*
X144462857Y-110352819D01*
X144462857Y-110352819D02*
X144558095Y-110400438D01*
X144558095Y-110400438D02*
X144605714Y-110448057D01*
X144605714Y-110448057D02*
X144653333Y-110543295D01*
X144653333Y-110543295D02*
X144653333Y-110638533D01*
X144653333Y-110638533D02*
X144605714Y-110781390D01*
X144605714Y-110781390D02*
X144034286Y-111352819D01*
X144034286Y-111352819D02*
X144653333Y-111352819D01*
D12*
%TO.C,R1*%
X112876000Y-104770000D02*
X112546000Y-104770000D01*
X112876000Y-98230000D02*
X112876000Y-104770000D01*
X112546000Y-98230000D02*
X112876000Y-98230000D01*
X110466000Y-98230000D02*
X110136000Y-98230000D01*
X110136000Y-104770000D02*
X110466000Y-104770000D01*
X110136000Y-98230000D02*
X110136000Y-104770000D01*
%TO.C,D1*%
X101875000Y-98935000D02*
X98785000Y-98935000D01*
X100329952Y-104485000D02*
G75*
G02*
X98785170Y-98935000I48J2990000D01*
G01*
X101874830Y-98935000D02*
G75*
G02*
X100330048Y-104485000I-1544830J-2560000D01*
G01*
X102830000Y-101495000D02*
G75*
G02*
X97830000Y-101495000I-2500000J0D01*
G01*
X97830000Y-101495000D02*
G75*
G02*
X102830000Y-101495000I2500000J0D01*
G01*
%TO.C,SW1*%
X116130000Y-102650000D02*
X116130000Y-100450000D01*
X116600000Y-104620000D02*
X121800000Y-104620000D01*
X117200000Y-98380000D02*
X121600000Y-98380000D01*
X122370000Y-100450000D02*
X122370000Y-102650000D01*
X120664214Y-101500000D02*
G75*
G02*
X117835786Y-101500000I-1414214J0D01*
G01*
X117835786Y-101500000D02*
G75*
G02*
X120664214Y-101500000I1414214J0D01*
G01*
%TO.C,BT1*%
X127010000Y-97890000D02*
X130628000Y-97890000D01*
X127010000Y-99600000D02*
X127010000Y-97890000D01*
X127010000Y-103400000D02*
X127010000Y-105110000D01*
X130628000Y-105110000D02*
X127010000Y-105110000D01*
X133472700Y-93390000D02*
X137460000Y-93390000D01*
X139660000Y-95590000D02*
X137460000Y-93390000D01*
X139660000Y-95590000D02*
X142980000Y-95590000D01*
X142980000Y-95590000D02*
X145180000Y-93390000D01*
X145180000Y-93390000D02*
X149167300Y-93390000D01*
X149167300Y-109610000D02*
X133472700Y-109610000D01*
X152012000Y-97890000D02*
X155630000Y-97890000D01*
X155630000Y-99600000D02*
X155630000Y-97890000D01*
X155630000Y-103400000D02*
X155630000Y-105110000D01*
X155630000Y-105110000D02*
X152012000Y-105110000D01*
X130628000Y-97890000D02*
G75*
G02*
X133474629Y-93388211I10692020J-3610012D01*
G01*
X133474629Y-109611789D02*
G75*
G02*
X130628000Y-105110000I7845371J8111789D01*
G01*
X149165371Y-93388211D02*
G75*
G02*
X152012000Y-97890000I-7845366J-8111785D01*
G01*
X152012000Y-105110000D02*
G75*
G02*
X149165372Y-109611790I-10692020J3610010D01*
G01*
%TD*%
M02*
